<svg width="319" height="111" viewBox="0 0 319 111" fill="none" xmlns="http://www.w3.org/2000/svg">
<rect x="11" y="10" width="293" height="90" rx="45" fill="url(#paint0_linear_71_1043)"/>
<mask id="mask0_71_1043" style="mask-type:luminance" maskUnits="userSpaceOnUse" x="11" y="11" width="89" height="89">
<path d="M11.1 11.1H99.9V99.9H11.1V11.1Z" fill="white"/>
</mask>
<g mask="url(#mask0_71_1043)">
<mask id="mask1_71_1043" style="mask-type:luminance" maskUnits="userSpaceOnUse" x="11" y="11" width="89" height="89">
<path d="M55.5 11.1C30.9784 11.1 11.1 30.9784 11.1 55.5C11.1 80.0216 30.9784 99.9 55.5 99.9C80.0216 99.9 99.9 80.0216 99.9 55.5C99.9 30.9784 80.0216 11.1 55.5 11.1Z" fill="white"/>
</mask>
<g mask="url(#mask1_71_1043)">
<path d="M11.1 11.1H99.9V99.9H11.1V11.1Z" fill="#00265F"/>
</g>
</g>
<mask id="mask2_71_1043" style="mask-type:luminance" maskUnits="userSpaceOnUse" x="11" y="11" width="89" height="89">
<path d="M11.1 11.1H99.9497V99.9497H11.1V11.1Z" fill="white"/>
</mask>
<g mask="url(#mask2_71_1043)">
<path fill-rule="evenodd" clip-rule="evenodd" d="M28.4883 44.9397C29.9421 44.6383 31.0379 43.3509 31.0379 41.8082V41.73C32.0063 41.2622 32.9885 40.8221 33.9847 40.4041C41.0384 37.4642 48.7837 35.8363 56.9117 35.8363C60.9088 35.8363 64.8133 36.2298 68.5866 36.9781C68.9447 38.6344 70.1256 39.9817 71.6822 40.5668C71.0832 47.2623 69.0512 53.9434 65.4835 60.1497C61.3092 67.4057 55.522 73.1575 48.8404 77.2108C46.1559 78.8387 43.3225 80.1935 40.3859 81.2647C39.8008 79.3815 38.0493 78.0159 35.9745 78.0159C35.0703 78.0159 34.2299 78.275 33.5169 78.7252L33.4848 78.6722C29.5947 71.7497 27.3748 63.7566 27.3748 55.2453C27.3748 51.7096 27.7576 48.2591 28.4845 44.9397H28.4883ZM49.5566 78.3992C56.4369 74.2287 62.3948 68.3098 66.6857 60.8451C70.3279 54.5109 72.4092 47.7024 73.051 40.8757L73.4343 40.8896C74.5407 40.8896 75.5621 40.5277 76.3881 39.9143C80.899 44.4467 84.5091 49.8762 86.9281 55.9155C85.1547 56.5573 83.8855 58.2633 83.8855 60.2594C83.8855 61.8766 84.7184 63.3026 85.9774 64.1254C82.1297 70.154 76.7537 75.3351 70.0474 79.0303C61.4831 83.7468 52.0394 85.3287 43.0351 84.1617C42.1732 84.052 41.3151 83.9101 40.4608 83.7506C40.5459 83.4032 40.5952 83.0413 40.5952 82.6688C43.709 81.5516 46.7126 80.1261 49.5566 78.4024V78.3992ZM70.7144 80.2465C77.6931 76.4025 83.2715 70.9944 87.2509 64.703L87.5983 64.7881C85.9137 71.8492 82.3995 78.2006 77.5871 83.3106C70.6577 90.6656 61.0292 95.4571 50.2873 96.1059L50.2375 96.0989C45.9289 93.4497 42.0672 90.1341 38.7971 86.2965C39.2371 85.956 39.6166 85.538 39.9073 85.0626C40.8826 85.2543 41.8649 85.417 42.8541 85.5449C52.1421 86.7504 61.8841 85.1156 70.7144 80.254V80.2465ZM57.8447 96.365C65.9128 94.3967 73.0831 90.1126 78.5978 84.2575C83.6371 78.9099 87.297 72.2497 89.0169 64.8448C89.1834 64.8272 89.3498 64.7956 89.5131 64.7597C90.0629 67.6611 90.3503 70.6577 90.3503 73.718L90.3182 75.5444L90.2261 77.1899C88.5769 79.821 86.6369 82.2539 84.4529 84.4385C77.562 91.3289 68.2178 95.7761 57.8479 96.3612L57.8447 96.365ZM55.5038 99.9038C80.027 99.9038 99.9038 80.027 99.9038 55.5038C99.9038 30.9812 80.027 11.1044 55.5038 11.1044C30.9812 11.1044 11.1044 30.9812 11.1044 55.5038C11.1044 80.027 30.9812 99.9038 55.5038 99.9038ZM56.9117 34.4494C48.5995 34.4494 40.6733 36.1163 33.4494 39.1274C32.5202 39.5171 31.5984 39.9287 30.6905 40.3612C30.524 40.0315 30.3003 39.7333 30.031 39.4817C30.9175 36.9353 32.0095 34.4885 33.2937 32.162C34.0597 30.7719 34.8964 29.4245 35.7903 28.1194C36.0703 28.2008 36.3647 28.2436 36.6698 28.2436C38.1451 28.2436 39.3859 27.2437 39.7547 25.8851C40.6412 25.8353 41.5352 25.8107 42.4323 25.8107C52.238 25.8107 61.352 28.7575 68.9447 33.8113C68.6894 34.3466 68.5298 34.9317 68.4838 35.5489C64.7351 34.8257 60.8627 34.4494 56.9047 34.4494H56.9117ZM25.9879 55.2485C25.9879 64.0044 28.2752 72.2282 32.2755 79.3531L32.4457 79.6582C32.0914 80.0763 31.8109 80.5661 31.623 81.0944C26.7009 79.041 22.1294 76.0867 18.1789 72.3278C15.86 67.1964 14.5726 61.4971 14.5726 55.5006C14.5726 54.8128 14.5902 54.1244 14.6224 53.4435C18.0371 50.0074 21.8671 46.9824 26.0339 44.4536C26.346 44.6667 26.6939 44.8262 27.0697 44.9183C26.3567 48.2516 25.9847 51.7059 25.9847 55.2485H25.9879ZM19.8812 75.6756C23.3777 78.5196 27.2539 80.807 31.3607 82.4916L31.3569 82.6404C31.3569 82.9632 31.3891 83.2822 31.4528 83.5836C29.7296 83.8571 27.9845 84.0375 26.2363 84.1226C23.7717 81.6014 21.6295 78.7643 19.878 75.6756H19.8812ZM78.3954 35.9322C78.3954 33.1941 76.1756 30.9742 73.438 30.9742C73.2855 30.9742 73.1329 30.9849 72.9841 30.9956C72.6576 27.9669 72.0478 24.9703 71.1716 22.0588C71.2567 21.9844 71.3418 21.9025 71.4199 21.8211C74.0263 23.6652 76.4063 25.8069 78.5159 28.2008C81.7785 31.9035 84.378 36.2014 86.1407 40.911C85.8816 41.085 85.6514 41.2868 85.4529 41.5245C83.0199 40.2371 80.4879 39.106 77.8741 38.1521C78.2076 37.4851 78.3954 36.7298 78.3954 35.9322ZM87.4388 40.4073C85.6156 35.5419 82.9278 31.1016 79.5554 27.2753C77.3602 24.7824 74.8774 22.555 72.1538 20.6333C72.2994 20.2468 72.3776 19.8282 72.3776 19.3882C72.3776 18.924 72.2887 18.484 72.1292 18.0799C76.7499 20.1333 80.9242 23.0234 84.4492 26.5483C87.9848 30.084 90.8717 34.2615 92.9283 38.8929C92.9995 41.2584 92.8823 43.6202 92.5772 45.9503C92.0135 45.5462 91.4461 45.149 90.868 44.7625C91.0168 44.3937 91.0987 43.989 91.0987 43.5672C91.0987 41.8012 89.6657 40.3682 87.8997 40.3682C87.7402 40.3682 87.5839 40.3757 87.4313 40.4003L87.4388 40.4073ZM88.3215 55.6425C85.9742 49.6846 82.4953 44.2941 78.1578 39.7333C80.4489 40.6059 82.6655 41.6165 84.8142 42.7551C84.7468 43.0137 84.7115 43.2872 84.7115 43.5709C84.7115 45.3155 86.1086 46.734 87.8467 46.7661C88.4211 49.4999 88.7262 52.337 88.7262 55.2453L88.7187 55.6425L88.5094 55.6387L88.3253 55.6425H88.3215ZM31.9602 84.9063C32.7509 86.3072 34.2583 87.2541 35.9814 87.2541C36.5381 87.2541 37.067 87.1551 37.5595 86.9774C40.2761 90.2047 43.3932 93.0739 46.8405 95.5138C39.4924 93.9283 32.8788 90.3749 27.5841 85.4314C29.0519 85.3217 30.5096 85.144 31.9565 84.9063H31.9602ZM90.1159 55.2453C90.1159 52.2449 89.8038 49.3158 89.2085 46.4931C89.5345 46.3475 89.8289 46.1489 90.0875 45.9075C90.8535 46.4219 91.6126 46.9572 92.354 47.5038C91.8824 50.3548 91.1303 53.1528 90.1126 55.8587L90.1196 55.2415L90.1159 55.2453ZM91.7437 73.7217C91.7437 70.4799 91.4316 67.3131 90.8326 64.2458C92.2051 63.4445 93.1232 61.9585 93.1232 60.2562C93.1232 58.7633 92.4139 57.4368 91.3181 56.5926C93.0525 52.057 94.0632 47.2516 94.2939 42.3793C95.6841 46.4963 96.4394 50.9115 96.4394 55.4969C96.4394 62.391 94.7371 68.8842 91.726 74.5868L91.7437 73.7217ZM69.7214 32.6443C61.9087 27.4455 52.5286 24.4136 42.443 24.4136C41.5673 24.4136 40.6979 24.4382 39.8292 24.481C39.7617 24.1122 39.6343 23.7648 39.4534 23.4489C42.3119 20.2286 45.5954 17.399 49.2162 15.0442C50.4576 14.8525 51.7166 14.7144 52.9933 14.64C57.4122 15.2 61.6143 16.4659 65.4765 18.3208C65.37 18.658 65.3132 19.0161 65.3132 19.3919C65.3132 21.3457 66.895 22.9238 68.8489 22.9238C69.2284 22.9238 69.5903 22.8639 69.9307 22.7536C70.7497 25.5484 71.3172 28.4139 71.6185 31.3109C70.8846 31.6021 70.2353 32.0593 69.7214 32.6411V32.6443ZM66.1536 17.1008C64.3449 16.2288 62.4654 15.4837 60.5255 14.8702C62.8166 15.1507 65.0472 15.6186 67.2034 16.2604C66.7992 16.4697 66.4443 16.7571 66.1536 17.1008ZM32.0844 31.4886C30.8077 33.8043 29.712 36.2335 28.818 38.7586C28.5097 38.6627 28.1869 38.6092 27.8464 38.6092C26.0805 38.6092 24.6475 40.0422 24.6475 41.8082C24.6475 42.3932 24.8038 42.936 25.0768 43.4076C21.3634 45.6843 17.9166 48.3474 14.7888 51.3371C15.6186 43.1095 18.8812 35.6056 23.8499 29.5487C26.7223 28.3357 29.7403 27.3995 32.8574 26.7646L33.8718 26.5697C34.0559 26.8995 34.2936 27.1971 34.5773 27.4455C33.6834 28.7506 32.8536 30.0985 32.0876 31.4886H32.0844ZM36.68 21.8425C34.914 21.8425 33.4816 23.275 33.4816 25.0409L33.4885 25.2326L32.5806 25.4098C30.2756 25.8781 28.0306 26.506 25.8605 27.2822L26.5697 26.5553C31.7932 21.3318 38.4213 17.5125 45.8438 15.7181C43.1844 17.7041 40.7263 19.9524 38.5171 22.4238C37.9995 22.0588 37.3684 21.8457 36.6837 21.8457L36.68 21.8425Z" fill="#175FCB"/>
</g>
<path d="M36.6151 81.4877C36.6151 81.5343 36.6109 81.5804 36.6018 81.6259C36.5927 81.6714 36.5793 81.7158 36.5616 81.7586C36.5439 81.802 36.522 81.8426 36.4958 81.8812C36.4701 81.9197 36.4406 81.9556 36.408 81.9888C36.3748 82.0214 36.3395 82.0509 36.3004 82.0766C36.2618 82.1028 36.2212 82.1242 36.1783 82.1424C36.135 82.1601 36.0911 82.1735 36.045 82.1826C35.9995 82.1917 35.9535 82.1959 35.9069 82.1959C35.8604 82.1959 35.8143 82.1917 35.7688 82.1826C35.7233 82.1735 35.6789 82.1601 35.6361 82.1424C35.5932 82.1242 35.552 82.1028 35.5135 82.0766C35.4749 82.0509 35.4391 82.0214 35.4064 81.9888C35.3732 81.9556 35.3438 81.9197 35.3181 81.8812C35.2924 81.8426 35.2705 81.802 35.2528 81.7586C35.2346 81.7158 35.2212 81.6714 35.2121 81.6259C35.203 81.5804 35.1987 81.5343 35.1987 81.4877C35.1987 81.4412 35.203 81.3951 35.2121 81.3496C35.2212 81.3041 35.2346 81.2597 35.2528 81.2169C35.2705 81.1735 35.2924 81.1328 35.3181 81.0943C35.3438 81.0558 35.3732 81.0199 35.4064 80.9867C35.4391 80.954 35.4749 80.9246 35.5135 80.8989C35.552 80.8732 35.5932 80.8513 35.6361 80.8336C35.6789 80.8154 35.7233 80.802 35.7688 80.7929C35.8143 80.7838 35.8604 80.7795 35.9069 80.7795C35.9535 80.7795 35.9995 80.7838 36.045 80.7929C36.0911 80.802 36.135 80.8154 36.1783 80.8336C36.2212 80.8513 36.2618 80.8732 36.3004 80.8989C36.3395 80.9246 36.3748 80.954 36.408 80.9867C36.4406 81.0199 36.4701 81.0558 36.4958 81.0943C36.522 81.1328 36.5439 81.1735 36.5616 81.2169C36.5793 81.2597 36.5927 81.3041 36.6018 81.3496C36.6109 81.3951 36.6151 81.4412 36.6151 81.4877Z" fill="#96C6FF"/>
<path d="M34.6816 82.4321C34.7217 82.4321 34.764 82.423 34.802 82.3994C34.9155 82.3331 34.9508 82.1891 34.8844 82.0756C34.7806 81.9011 34.7265 81.6982 34.7265 81.4878C34.7265 81.2774 34.7806 81.0746 34.8844 80.9001C34.9508 80.7866 34.9128 80.6426 34.802 80.5762C34.6885 80.5104 34.5445 80.5484 34.4787 80.6592C34.332 80.907 34.2544 81.1929 34.2544 81.4878C34.2544 81.7828 34.332 82.0686 34.4787 82.3165C34.5237 82.3919 34.6013 82.4321 34.6816 82.4321Z" fill="#96C6FF"/>
<mask id="mask3_71_1043" style="mask-type:luminance" maskUnits="userSpaceOnUse" x="33" y="79" width="2" height="5">
<path d="M33.3097 79.8102H34.3964V83.1815H33.3097V79.8102Z" fill="white"/>
</mask>
<g mask="url(#mask3_71_1043)">
<path d="M33.7825 81.4887C33.7825 81.0236 33.9308 80.5846 34.2118 80.2137C34.29 80.1098 34.2712 79.961 34.1674 79.8834C34.063 79.8052 33.9147 79.824 33.8366 79.9283C33.4918 80.3791 33.3125 80.9197 33.3125 81.4866C33.3125 82.0529 33.494 82.5936 33.8366 83.0449C33.8837 83.1059 33.9549 83.1391 34.0255 83.1391C34.0748 83.1391 34.1246 83.1225 34.1674 83.092C34.2712 83.0138 34.29 82.8655 34.2118 82.7612C33.9308 82.3929 33.7825 81.9518 33.7825 81.4866V81.4887Z" fill="#96C6FF"/>
</g>
<path d="M37.0878 85.0293H36.8185L36.4406 82.5359C36.28 82.6189 36.1007 82.6681 35.9069 82.6681C35.7136 82.6681 35.5338 82.6162 35.3732 82.5359L34.9958 85.0293H34.7265C34.5965 85.0293 34.4905 85.1358 34.4905 85.2654C34.4905 85.3955 34.5965 85.5015 34.7265 85.5015H37.0878C37.2173 85.5015 37.3238 85.3955 37.3238 85.2654C37.3238 85.1358 37.2173 85.0293 37.0878 85.0293Z" fill="#96C6FF"/>
<path d="M37.3357 80.6592C37.2693 80.5457 37.1253 80.5103 37.0118 80.5762C36.8988 80.6426 36.8635 80.7866 36.9294 80.9C37.0332 81.0746 37.0878 81.2774 37.0878 81.4878C37.0878 81.6982 37.0332 81.9011 36.9294 82.0756C36.8635 82.1891 36.901 82.333 37.0118 82.3994C37.0498 82.4203 37.09 82.4321 37.1322 82.4321C37.2125 82.4321 37.2928 82.3898 37.3357 82.3165C37.4818 82.0686 37.5599 81.7828 37.5599 81.4878C37.5599 81.1929 37.4818 80.907 37.3357 80.6592Z" fill="#96C6FF"/>
<mask id="mask4_71_1043" style="mask-type:luminance" maskUnits="userSpaceOnUse" x="37" y="79" width="2" height="5">
<path d="M37.5481 79.8102H38.5074V83.1815H37.5481V79.8102Z" fill="white"/>
</mask>
<g mask="url(#mask4_71_1043)">
<path d="M37.9805 79.9306C37.9023 79.8267 37.7535 79.8053 37.6496 79.8856C37.5458 79.9637 37.5271 80.1126 37.6052 80.2164C37.8857 80.5847 38.0345 81.0263 38.0345 81.491C38.0345 81.9561 37.8857 82.3956 37.6052 82.766C37.5271 82.8699 37.5458 83.0187 37.6496 83.0969C37.6925 83.1301 37.7417 83.144 37.7915 83.144C37.8622 83.144 37.9334 83.1108 37.9805 83.0498C38.3252 82.5985 38.5045 82.0578 38.5045 81.491C38.5045 80.9246 38.3225 80.384 37.9805 79.9327V79.9306Z" fill="#96C6FF"/>
</g>
<mask id="mask5_71_1043" style="mask-type:luminance" maskUnits="userSpaceOnUse" x="47" y="25" width="35" height="36">
<path d="M47.2911 25.8042H81.726V60.2385H47.2911V25.8042Z" fill="white"/>
</mask>
<g mask="url(#mask5_71_1043)">
<mask id="mask6_71_1043" style="mask-type:luminance" maskUnits="userSpaceOnUse" x="47" y="25" width="35" height="36">
<path d="M64.5086 25.8042C55 25.8042 47.2911 33.5125 47.2911 43.0211C47.2911 52.5302 55 60.2385 64.5086 60.2385C74.0176 60.2385 81.726 52.5302 81.726 43.0211C81.726 33.5125 74.0176 25.8042 64.5086 25.8042Z" fill="white"/>
</mask>
<g mask="url(#mask6_71_1043)">
<path d="M47.2911 25.8042H81.726V60.2385H47.2911V25.8042Z" fill="#175FCB"/>
</g>
</g>
<path d="M67.1696 38.6294C67.1696 38.7161 67.1653 38.8034 67.1567 38.8901C67.1482 38.9768 67.1353 39.063 67.1182 39.1481C67.1016 39.2338 67.0802 39.3183 67.055 39.4019C67.0293 39.4854 67.0004 39.5673 66.9667 39.6476C66.9335 39.7284 66.8966 39.8071 66.8554 39.8836C66.8142 39.9607 66.7692 40.0351 66.721 40.1079C66.6723 40.1802 66.6209 40.2503 66.5652 40.3178C66.5101 40.3852 66.4518 40.4494 66.3902 40.511C66.3281 40.5726 66.2639 40.6314 66.1964 40.6866C66.129 40.7417 66.0594 40.7936 65.9866 40.8418C65.9143 40.8905 65.8394 40.9355 65.7628 40.9762C65.6857 41.0174 65.607 41.0549 65.5268 41.088C65.4459 41.1212 65.364 41.1507 65.2805 41.1758C65.197 41.2015 65.113 41.2224 65.0273 41.2395C64.9417 41.2567 64.8555 41.269 64.7688 41.2775C64.682 41.2861 64.5953 41.2904 64.5081 41.2904C64.4208 41.2904 64.3341 41.2861 64.2474 41.2775C64.1607 41.269 64.0745 41.2567 63.9888 41.2395C63.9032 41.2224 63.8191 41.2015 63.7356 41.1758C63.6521 41.1507 63.5702 41.1212 63.4894 41.088C63.4091 41.0549 63.3304 41.0174 63.2533 40.9762C63.1768 40.9355 63.1018 40.8905 63.0296 40.8418C62.9568 40.7936 62.8872 40.7417 62.8197 40.6866C62.7523 40.6314 62.6881 40.5726 62.626 40.511C62.5644 40.4494 62.506 40.3852 62.4509 40.3178C62.3952 40.2503 62.3439 40.1802 62.2951 40.1079C62.247 40.0351 62.202 39.9607 62.1608 39.8836C62.1196 39.8071 62.0826 39.7284 62.0494 39.6476C62.0157 39.5673 61.9863 39.4854 61.9611 39.4019C61.936 39.3183 61.9145 39.2338 61.8979 39.1481C61.8808 39.063 61.868 38.9768 61.8594 38.8901C61.8508 38.8034 61.8466 38.7161 61.8466 38.6294C61.8466 38.5422 61.8508 38.4549 61.8594 38.3682C61.868 38.2815 61.8808 38.1953 61.8979 38.1102C61.9145 38.0245 61.936 37.9399 61.9611 37.8564C61.9863 37.7729 62.0157 37.691 62.0494 37.6107C62.0826 37.5299 62.1196 37.4512 62.1608 37.3747C62.202 37.2976 62.247 37.2232 62.2951 37.1504C62.3439 37.0781 62.3952 37.008 62.4509 36.9405C62.506 36.8736 62.5644 36.8089 62.626 36.7473C62.6881 36.6857 62.7523 36.6274 62.8197 36.5717C62.8872 36.5166 62.9568 36.4647 63.0296 36.4165C63.1018 36.3678 63.1768 36.3233 63.2533 36.2821C63.3304 36.2409 63.4091 36.2034 63.4894 36.1702C63.5702 36.1371 63.6521 36.1076 63.7356 36.0824C63.8191 36.0573 63.9032 36.0359 63.9888 36.0187C64.0745 36.0016 64.1607 35.9893 64.2474 35.9807C64.3341 35.9722 64.4208 35.9679 64.5081 35.9679C64.5953 35.9679 64.682 35.9722 64.7688 35.9807C64.8555 35.9893 64.9417 36.0016 65.0273 36.0187C65.113 36.0359 65.197 36.0573 65.2805 36.0824C65.364 36.1076 65.4459 36.1371 65.5268 36.1702C65.607 36.2034 65.6857 36.2409 65.7628 36.2821C65.8394 36.3233 65.9143 36.3678 65.9866 36.4165C66.0594 36.4647 66.129 36.5166 66.1964 36.5717C66.2639 36.6274 66.3281 36.6857 66.3902 36.7473C66.4518 36.8089 66.5101 36.8736 66.5652 36.9405C66.6209 37.008 66.6723 37.0781 66.721 37.1504C66.7692 37.2232 66.8142 37.2976 66.8554 37.3747C66.8966 37.4512 66.9335 37.5299 66.9667 37.6107C67.0004 37.691 67.0293 37.7729 67.055 37.8564C67.0802 37.9399 67.1016 38.0245 67.1182 38.1102C67.1353 38.1953 67.1482 38.2815 67.1567 38.3682C67.1653 38.4549 67.1696 38.5422 67.1696 38.6294Z" fill="white"/>
<path d="M59.9039 42.178C60.0543 42.178 60.2144 42.1421 60.3562 42.0538C60.7818 41.8054 60.9151 41.2642 60.6667 40.8381C60.2764 40.1818 60.0725 39.419 60.0725 38.6295C60.0725 37.8399 60.2764 37.0765 60.6667 36.4203C60.9151 35.9942 60.7732 35.453 60.3562 35.2046C59.9301 34.9562 59.3889 35.0986 59.1405 35.5151C58.5908 36.447 58.298 37.5203 58.298 38.6295C58.298 39.7381 58.5908 40.8113 59.1405 41.7433C59.3092 42.027 59.602 42.178 59.9039 42.178Z" fill="white"/>
<mask id="mask7_71_1043" style="mask-type:luminance" maskUnits="userSpaceOnUse" x="54" y="32" width="5" height="13">
<path d="M54.7495 32.3407H58.3778V44.9481H54.7495V32.3407Z" fill="white"/>
</mask>
<g mask="url(#mask7_71_1043)">
<path d="M56.5235 38.6294C56.5235 36.8816 57.0829 35.2313 58.1385 33.8385C58.4313 33.4482 58.3601 32.8894 57.9699 32.5966C57.5796 32.3038 57.0208 32.375 56.728 32.7652C55.4325 34.4594 54.7581 36.4909 54.7581 38.6203C54.7581 40.7492 55.4416 42.7812 56.728 44.4754C56.9051 44.7061 57.1712 44.8303 57.4372 44.8303C57.6235 44.8303 57.8098 44.7682 57.9699 44.6531C58.3601 44.3603 58.4313 43.8015 58.1385 43.4107C57.0829 42.027 56.5235 40.3681 56.5235 38.6203V38.6294Z" fill="white"/>
</g>
<mask id="mask8_71_1043" style="mask-type:luminance" maskUnits="userSpaceOnUse" x="59" y="42" width="11" height="12">
<path d="M59.063 42.4814H69.8889V53.6885H59.063V42.4814Z" fill="white"/>
</mask>
<g mask="url(#mask8_71_1043)">
<path d="M68.9436 51.9364H67.9324L66.5128 42.5681C65.91 42.8786 65.2356 43.0649 64.5081 43.0649C63.7806 43.0649 63.1061 42.8695 62.5034 42.5681L61.0838 51.9364H60.0726C59.5844 51.9364 59.1851 52.3358 59.1851 52.8234C59.1851 53.3116 59.5844 53.7104 60.0726 53.7104H68.9436C69.4318 53.7104 69.8311 53.3116 69.8311 52.8234C69.8311 52.3358 69.4318 51.9364 68.9436 51.9364Z" fill="white"/>
</g>
<path d="M69.8755 35.5151C69.6271 35.0895 69.0859 34.9562 68.6598 35.2046C68.2343 35.453 68.101 35.9941 68.3494 36.4202C68.7396 37.0765 68.9435 37.8399 68.9435 38.6294C68.9435 39.419 68.7396 40.1818 68.3494 40.8381C68.101 41.2642 68.2428 41.8054 68.6598 42.0538C68.8017 42.1335 68.9526 42.1779 69.1122 42.1779C69.4141 42.1779 69.7154 42.0179 69.8755 41.7433C70.4252 40.8113 70.7181 39.738 70.7181 38.6294C70.7181 37.5203 70.4252 36.447 69.8755 35.5151Z" fill="white"/>
<path d="M72.2972 32.7737C72.0044 32.3835 71.4456 32.3037 71.0553 32.6057C70.6651 32.8979 70.5939 33.4573 70.8867 33.8476C71.9423 35.2313 72.5012 36.8902 72.5012 38.638C72.5012 40.3857 71.9423 42.0361 70.8867 43.4284C70.5939 43.8191 70.6651 44.378 71.0553 44.6708C71.2149 44.795 71.4012 44.848 71.5874 44.848C71.8535 44.848 72.1201 44.7238 72.2972 44.4931C73.5927 42.7989 74.2666 40.7674 74.2666 38.638C74.2666 36.5091 73.5836 34.4771 72.2972 32.7828V32.7737Z" fill="white"/>
<path d="M28.2259 40.9832C28.2259 41.041 28.2147 41.0972 28.1927 41.1507C28.1702 41.2048 28.1387 41.2524 28.0974 41.2937C28.0562 41.3343 28.0086 41.3665 27.9551 41.3884C27.901 41.4109 27.8453 41.4221 27.787 41.4221C27.7286 41.4221 27.673 41.4109 27.6189 41.3884C27.5654 41.3665 27.5177 41.3343 27.4765 41.2937C27.4353 41.2524 27.4037 41.2048 27.3812 41.1507C27.3593 41.0972 27.348 41.041 27.348 40.9832C27.348 40.9248 27.3593 40.8686 27.3812 40.8151C27.4037 40.761 27.4353 40.7134 27.4765 40.6727C27.5177 40.6315 27.5654 40.5994 27.6189 40.5774C27.673 40.5549 27.7286 40.5437 27.787 40.5437C27.8453 40.5437 27.901 40.5549 27.9551 40.5774C28.0086 40.5994 28.0562 40.6315 28.0974 40.6727C28.1387 40.7134 28.1702 40.761 28.1927 40.8151C28.2147 40.8686 28.2259 40.9248 28.2259 40.9832Z" fill="#96C6FF"/>
<path d="M27.0273 41.5683C27.0519 41.5683 27.0787 41.5624 27.1017 41.548C27.1724 41.5067 27.1943 41.4179 27.1531 41.3472C27.0889 41.2391 27.0551 41.1133 27.0551 40.9832C27.0551 40.8526 27.0889 40.7268 27.1531 40.6187C27.1943 40.5485 27.1708 40.4591 27.1017 40.4179C27.0316 40.3772 26.9422 40.4003 26.9015 40.4693C26.8105 40.623 26.7623 40.8001 26.7623 40.9832C26.7623 41.1657 26.8105 41.3429 26.9015 41.4966C26.9293 41.5437 26.9775 41.5683 27.0273 41.5683Z" fill="#96C6FF"/>
<mask id="mask9_71_1043" style="mask-type:luminance" maskUnits="userSpaceOnUse" x="26" y="39" width="1" height="4">
<path d="M26.1768 39.9431H26.8593V42.0704H26.1768V39.9431Z" fill="white"/>
</mask>
<g mask="url(#mask9_71_1043)">
<path d="M26.4697 40.9838C26.4697 40.6953 26.5617 40.4228 26.7363 40.1932C26.7844 40.1289 26.7727 40.0369 26.7084 39.9882C26.6442 39.94 26.5516 39.9518 26.5034 40.016C26.2898 40.2954 26.1785 40.6311 26.1785 40.9822C26.1785 41.3334 26.2914 41.6685 26.5034 41.9479C26.5328 41.9859 26.5767 42.0068 26.6206 42.0068C26.6511 42.0068 26.6822 41.9966 26.7084 41.9773C26.7727 41.9292 26.7844 41.8371 26.7363 41.7723C26.5617 41.5443 26.4697 41.2702 26.4697 40.9822V40.9838Z" fill="#96C6FF"/>
</g>
<mask id="mask10_71_1043" style="mask-type:luminance" maskUnits="userSpaceOnUse" x="26" y="41" width="3" height="3">
<path d="M26.8593 41.5222H28.7778V43.4504H26.8593V41.5222Z" fill="white"/>
</mask>
<g mask="url(#mask10_71_1043)">
<path d="M28.5186 43.1785H28.3516L28.1177 41.6331C28.0181 41.6839 27.9068 41.715 27.7869 41.715C27.667 41.715 27.5556 41.6823 27.4561 41.6331L27.2221 43.1785H27.0551C26.9743 43.1785 26.9084 43.2443 26.9084 43.3246C26.9084 43.4054 26.9743 43.4713 27.0551 43.4713H28.5186C28.5989 43.4713 28.6648 43.4054 28.6648 43.3246C28.6648 43.2443 28.5989 43.1785 28.5186 43.1785Z" fill="#96C6FF"/>
</g>
<path d="M28.6723 40.4693C28.6316 40.3992 28.5422 40.3772 28.4721 40.4179C28.4015 40.4591 28.3795 40.5485 28.4207 40.6187C28.485 40.7268 28.5187 40.8526 28.5187 40.9832C28.5187 41.1133 28.485 41.2391 28.4207 41.3472C28.3795 41.4179 28.4031 41.5067 28.4721 41.5479C28.4951 41.5613 28.5203 41.5683 28.5465 41.5683C28.5963 41.5683 28.6461 41.5421 28.6723 41.4966C28.7633 41.3429 28.8115 41.1657 28.8115 40.9832C28.8115 40.8001 28.7633 40.6229 28.6723 40.4693Z" fill="#96C6FF"/>
<mask id="mask11_71_1043" style="mask-type:luminance" maskUnits="userSpaceOnUse" x="28" y="39" width="2" height="4">
<path d="M28.7778 39.9431H29.3656V42.0704H28.7778V39.9431Z" fill="white"/>
</mask>
<g mask="url(#mask11_71_1043)">
<path d="M29.0722 40.017C29.0235 39.9528 28.9315 39.9394 28.8672 39.9892C28.8025 40.0374 28.7912 40.13 28.8394 40.1942C29.0134 40.4223 29.1054 40.6963 29.1054 40.9843C29.1054 41.2729 29.0134 41.5448 28.8394 41.775C28.7912 41.8392 28.8025 41.9313 28.8672 41.98C28.8935 42.0003 28.924 42.0089 28.955 42.0089C28.9989 42.0089 29.0428 41.9886 29.0722 41.9506C29.2858 41.6711 29.3972 41.3355 29.3972 40.9843C29.3972 40.6332 29.2842 40.2981 29.0722 40.0187V40.017Z" fill="#96C6FF"/>
</g>
<path d="M37.1209 24.4644C37.1209 24.5222 37.1102 24.5784 37.0877 24.6319C37.0653 24.686 37.0337 24.7336 36.9925 24.7749C36.9512 24.8161 36.9041 24.8477 36.8501 24.8696C36.7965 24.8921 36.7403 24.9033 36.682 24.9033C36.6236 24.9033 36.568 24.8921 36.5139 24.8696C36.4604 24.8477 36.4127 24.8161 36.3715 24.7749C36.3303 24.7336 36.2987 24.686 36.2762 24.6319C36.2543 24.5784 36.243 24.5222 36.243 24.4644C36.243 24.406 36.2543 24.3498 36.2762 24.2963C36.2987 24.2422 36.3303 24.1946 36.3715 24.1539C36.4127 24.1127 36.4604 24.0806 36.5139 24.0586C36.568 24.0361 36.6236 24.0249 36.682 24.0249C36.7403 24.0249 36.7965 24.0361 36.8501 24.0586C36.9041 24.0806 36.9512 24.1127 36.9925 24.1539C37.0337 24.1946 37.0653 24.2422 37.0877 24.2963C37.1102 24.3498 37.1209 24.406 37.1209 24.4644Z" fill="#96C6FF"/>
<path d="M35.9224 25.0494C35.9476 25.0494 35.9738 25.0435 35.9974 25.029C36.0675 24.9878 36.0895 24.899 36.0482 24.8283C35.984 24.7202 35.9503 24.5944 35.9503 24.4643C35.9503 24.3337 35.984 24.2079 36.0482 24.0997C36.0895 24.0296 36.0659 23.9402 35.9974 23.899C35.9267 23.8583 35.8379 23.8813 35.7966 23.9504C35.7062 24.104 35.6575 24.2812 35.6575 24.4643C35.6575 24.6468 35.7062 24.824 35.7966 24.9776C35.8245 25.0247 35.8727 25.0494 35.9224 25.0494Z" fill="#96C6FF"/>
<mask id="mask12_71_1043" style="mask-type:luminance" maskUnits="userSpaceOnUse" x="35" y="23" width="1" height="3">
<path d="M35.0724 23.4333H35.7667V25.4889H35.0724V23.4333Z" fill="white"/>
</mask>
<g mask="url(#mask12_71_1043)">
<path d="M35.3647 24.4645C35.3647 24.176 35.4573 23.9035 35.6313 23.6739C35.6794 23.6097 35.6677 23.5176 35.6034 23.4689C35.5392 23.4207 35.4471 23.4325 35.3984 23.4967C35.1848 23.7767 35.0735 24.1118 35.0735 24.4629C35.0735 24.8141 35.1864 25.1492 35.3984 25.4286C35.4279 25.4666 35.4718 25.4875 35.5156 25.4875C35.5462 25.4875 35.5772 25.4773 35.6034 25.4581C35.6677 25.4099 35.6794 25.3178 35.6313 25.253C35.4573 25.025 35.3647 24.7509 35.3647 24.4629V24.4645Z" fill="#96C6FF"/>
</g>
<mask id="mask13_71_1043" style="mask-type:luminance" maskUnits="userSpaceOnUse" x="35" y="25" width="3" height="2">
<path d="M35.7667 25.0778H37.6852V26.9315H35.7667V25.0778Z" fill="white"/>
</mask>
<g mask="url(#mask13_71_1043)">
<path d="M37.4138 26.6595H37.2474L37.0129 25.1141C36.9133 25.165 36.802 25.196 36.6821 25.196C36.5622 25.196 36.4508 25.1639 36.3513 25.1141L36.1174 26.6595H35.9503C35.87 26.6595 35.8042 26.7254 35.8042 26.8057C35.8042 26.8865 35.87 26.9524 35.9503 26.9524H37.4138C37.4947 26.9524 37.5605 26.8865 37.5605 26.8057C37.5605 26.7254 37.4947 26.6595 37.4138 26.6595Z" fill="#96C6FF"/>
</g>
<path d="M37.5675 23.9504C37.5268 23.8803 37.4374 23.8583 37.3673 23.899C37.2971 23.9402 37.2752 24.0296 37.3159 24.0997C37.3801 24.2079 37.4138 24.3337 37.4138 24.4643C37.4138 24.5944 37.3801 24.7202 37.3159 24.8283C37.2752 24.8989 37.2982 24.9878 37.3673 25.029C37.3908 25.0424 37.4154 25.0494 37.4417 25.0494C37.4915 25.0494 37.5412 25.0231 37.5675 24.9776C37.6585 24.824 37.7066 24.6468 37.7066 24.4643C37.7066 24.2812 37.6585 24.104 37.5675 23.9504Z" fill="#96C6FF"/>
<mask id="mask14_71_1043" style="mask-type:luminance" maskUnits="userSpaceOnUse" x="37" y="23" width="2" height="3">
<path d="M37.6852 23.4333H38.2606V25.6259H37.6852V23.4333Z" fill="white"/>
</mask>
<g mask="url(#mask14_71_1043)">
<path d="M37.9681 23.4984C37.9199 23.4341 37.8273 23.4208 37.7631 23.4705C37.6988 23.5187 37.6871 23.6113 37.7352 23.6756C37.9092 23.9036 38.0018 24.1777 38.0018 24.4657C38.0018 24.7542 37.9092 25.0267 37.7352 25.2563C37.6871 25.3205 37.6988 25.4126 37.7631 25.4613C37.7893 25.4817 37.8203 25.4902 37.8509 25.4902C37.8947 25.4902 37.9386 25.4699 37.9681 25.4319C38.1817 25.1525 38.293 24.8174 38.293 24.4657C38.293 24.1145 38.1801 23.7794 37.9681 23.5V23.4984Z" fill="#96C6FF"/>
</g>
<path d="M69.3696 18.7383C69.3696 18.7966 69.3584 18.8528 69.3359 18.9063C69.314 18.9604 69.2819 19.0075 69.2412 19.0487C69.1999 19.09 69.1523 19.1215 69.0982 19.144C69.0447 19.1665 68.9885 19.1777 68.9307 19.1777C68.8723 19.1777 68.8161 19.1665 68.7626 19.144C68.7085 19.1215 68.6609 19.09 68.6197 19.0487C68.579 19.0075 68.5469 18.9604 68.5249 18.9063C68.5025 18.8528 68.4912 18.7966 68.4912 18.7383C68.4912 18.6805 68.5025 18.6242 68.5249 18.5702C68.5469 18.5166 68.579 18.469 68.6197 18.4278C68.6609 18.3866 68.7085 18.355 68.7626 18.3325C68.8161 18.3106 68.8723 18.2993 68.9307 18.2993C68.9885 18.2993 69.0447 18.3106 69.0982 18.3325C69.1523 18.355 69.1999 18.3866 69.2412 18.4278C69.2819 18.469 69.314 18.5166 69.3359 18.5702C69.3584 18.6242 69.3696 18.6805 69.3696 18.7383Z" fill="#96C6FF"/>
<path d="M68.1706 19.3238C68.1957 19.3238 68.222 19.3179 68.2455 19.3034C68.3156 19.2622 68.3376 19.1728 68.2969 19.1027C68.2321 18.9946 68.1984 18.8688 68.1984 18.7382C68.1984 18.6081 68.2321 18.4823 68.2969 18.3736C68.3376 18.3035 68.314 18.2141 68.2455 18.1734C68.1754 18.1322 68.086 18.1558 68.0448 18.2248C67.9543 18.3784 67.9061 18.5556 67.9061 18.7382C67.9061 18.9212 67.9543 19.0984 68.0448 19.252C68.0726 19.2986 68.1213 19.3238 68.1706 19.3238Z" fill="#96C6FF"/>
<mask id="mask15_71_1043" style="mask-type:luminance" maskUnits="userSpaceOnUse" x="67" y="17" width="1" height="3">
<path d="M67.3206 17.6986H67.9704V19.8703H67.3206V17.6986Z" fill="white"/>
</mask>
<g mask="url(#mask15_71_1043)">
<path d="M67.6135 18.7388C67.6135 18.4508 67.7055 18.1783 67.8795 17.9487C67.9282 17.8844 67.9164 17.7918 67.8517 17.7437C67.7874 17.6955 67.6954 17.7073 67.6472 17.7715C67.4331 18.0509 67.3223 18.386 67.3223 18.7377C67.3223 19.0889 67.4347 19.424 67.6472 19.7034C67.6761 19.7414 67.72 19.7617 67.7639 19.7617C67.7949 19.7617 67.8254 19.7516 67.8517 19.7328C67.9164 19.6847 67.9282 19.592 67.8795 19.5278C67.7055 19.2992 67.6135 19.0257 67.6135 18.7377V18.7388Z" fill="#96C6FF"/>
</g>
<mask id="mask16_71_1043" style="mask-type:luminance" maskUnits="userSpaceOnUse" x="67" y="19" width="3" height="3">
<path d="M67.9703 19.3223H69.8889V21.2055H67.9703V19.3223Z" fill="white"/>
</mask>
<g mask="url(#mask16_71_1043)">
<path d="M69.6624 20.934H69.4954L69.261 19.3881C69.1619 19.4395 69.0506 19.47 68.9307 19.47C68.8102 19.47 68.6994 19.4378 68.5999 19.3881L68.3654 20.934H68.1984C68.1181 20.934 68.0522 20.9999 68.0522 21.0801C68.0522 21.1604 68.1181 21.2263 68.1984 21.2263H69.6624C69.7427 21.2263 69.8086 21.1604 69.8086 21.0801C69.8086 20.9999 69.7427 20.934 69.6624 20.934Z" fill="#96C6FF"/>
</g>
<path d="M69.8161 18.2248C69.7748 18.1541 69.6854 18.1322 69.6153 18.1734C69.5452 18.2141 69.5232 18.3035 69.5639 18.3736C69.6287 18.4823 69.6624 18.6081 69.6624 18.7382C69.6624 18.8688 69.6287 18.9946 69.5639 19.1027C69.5232 19.1728 69.5468 19.2622 69.6153 19.3034C69.6389 19.3163 69.6635 19.3238 69.6903 19.3238C69.74 19.3238 69.7893 19.2975 69.8161 19.252C69.9065 19.0984 69.9547 18.9212 69.9547 18.7382C69.9547 18.5556 69.9065 18.3784 69.8161 18.2248Z" fill="#96C6FF"/>
<mask id="mask17_71_1043" style="mask-type:luminance" maskUnits="userSpaceOnUse" x="69" y="17" width="2" height="3">
<path d="M69.8889 17.6986H70.5088V19.8703H69.8889V17.6986Z" fill="white"/>
</mask>
<g mask="url(#mask17_71_1043)">
<path d="M70.2154 17.7725C70.1672 17.7077 70.0752 17.6948 70.0104 17.7446C69.9461 17.7928 69.9344 17.8849 69.9825 17.9496C70.1571 18.1777 70.2491 18.4512 70.2491 18.7397C70.2491 19.0283 70.1571 19.3002 69.9825 19.5298C69.9344 19.5946 69.9461 19.6867 70.0104 19.7349C70.0371 19.7557 70.0677 19.7643 70.0982 19.7643C70.1421 19.7643 70.186 19.744 70.2154 19.706C70.429 19.426 70.5403 19.0909 70.5403 18.7397C70.5403 18.3886 70.4279 18.0535 70.2154 17.7735V17.7725Z" fill="#96C6FF"/>
</g>
<path d="M88.4355 42.9601C88.4355 43.0184 88.4243 43.0746 88.4023 43.1281C88.3798 43.1822 88.3483 43.2293 88.307 43.2705C88.2658 43.3118 88.2182 43.3439 88.1646 43.3658C88.1106 43.3883 88.0549 43.3995 87.9966 43.3995C87.9382 43.3995 87.882 43.3883 87.8285 43.3658C87.7744 43.3439 87.7273 43.3118 87.6861 43.2705C87.6449 43.2293 87.6133 43.1822 87.5908 43.1281C87.5683 43.0746 87.5576 43.0184 87.5576 42.9601C87.5576 42.9023 87.5683 42.846 87.5908 42.792C87.6133 42.7385 87.6449 42.6908 87.6861 42.6496C87.7273 42.6084 87.7744 42.5768 87.8285 42.5548C87.882 42.5324 87.9382 42.5211 87.9966 42.5211C88.0549 42.5211 88.1106 42.5324 88.1646 42.5548C88.2182 42.5768 88.2658 42.6084 88.307 42.6496C88.3483 42.6908 88.3798 42.7385 88.4023 42.792C88.4243 42.846 88.4355 42.9023 88.4355 42.9601Z" fill="#96C6FF"/>
<path d="M87.2369 43.5457C87.2615 43.5457 87.2878 43.5398 87.3113 43.5254C87.3814 43.4841 87.4034 43.3947 87.3627 43.3246C87.2985 43.2165 87.2647 43.0907 87.2647 42.9601C87.2647 42.83 87.2985 42.7042 87.3627 42.5961C87.4034 42.5254 87.3804 42.436 87.3113 42.3953C87.2412 42.3541 87.1518 42.3777 87.1111 42.4467C87.0201 42.6004 86.9719 42.7775 86.9719 42.9601C86.9719 43.1432 87.0201 43.3203 87.1111 43.474C87.1389 43.5211 87.1871 43.5457 87.2369 43.5457Z" fill="#96C6FF"/>
<mask id="mask18_71_1043" style="mask-type:luminance" maskUnits="userSpaceOnUse" x="86" y="41" width="2" height="3">
<path d="M86.3864 41.9333H87.0185V43.9889H86.3864V41.9333Z" fill="white"/>
</mask>
<g mask="url(#mask18_71_1043)">
<path d="M86.6793 42.9601C86.6793 42.6721 86.7713 42.3996 86.9458 42.17C86.994 42.1057 86.9822 42.0131 86.918 41.965C86.8532 41.9168 86.7612 41.9286 86.713 41.9928C86.4994 42.2722 86.3881 42.6073 86.3881 42.959C86.3881 43.3102 86.501 43.6453 86.713 43.9247C86.7424 43.9627 86.7863 43.9836 86.8302 43.9836C86.8607 43.9836 86.8918 43.9729 86.918 43.9541C86.9822 43.906 86.994 43.8134 86.9458 43.7491C86.7713 43.5211 86.6793 43.247 86.6793 42.959V42.9601Z" fill="#96C6FF"/>
</g>
<mask id="mask19_71_1043" style="mask-type:luminance" maskUnits="userSpaceOnUse" x="87" y="43" width="2" height="3">
<path d="M87.0186 43.5778H88.9371V45.4278H87.0186V43.5778Z" fill="white"/>
</mask>
<g mask="url(#mask19_71_1043)">
<path d="M88.7283 45.1558H88.5613L88.3274 43.6099C88.2278 43.6613 88.1165 43.6918 87.9966 43.6918C87.8767 43.6918 87.7653 43.6596 87.6658 43.6099L87.4313 45.1558H87.2648C87.184 45.1558 87.1182 45.2217 87.1182 45.3019C87.1182 45.3822 87.184 45.4481 87.2648 45.4481H88.7283C88.8086 45.4481 88.8745 45.3822 88.8745 45.3019C88.8745 45.2217 88.8086 45.1558 88.7283 45.1558Z" fill="#96C6FF"/>
</g>
<path d="M88.8819 42.4467C88.8407 42.3761 88.7519 42.3541 88.6812 42.3953C88.6111 42.436 88.5891 42.5254 88.6303 42.5961C88.6946 42.7042 88.7283 42.83 88.7283 42.9601C88.7283 43.0907 88.6946 43.2165 88.6303 43.3246C88.5891 43.3947 88.6127 43.4841 88.6812 43.5254C88.7048 43.5382 88.7299 43.5457 88.7561 43.5457C88.8059 43.5457 88.8557 43.5195 88.8819 43.474C88.9729 43.3203 89.0211 43.1432 89.0211 42.9601C89.0211 42.7775 88.9729 42.6004 88.8819 42.4467Z" fill="#96C6FF"/>
<mask id="mask20_71_1043" style="mask-type:luminance" maskUnits="userSpaceOnUse" x="88" y="41" width="2" height="3">
<path d="M88.937 41.9333H89.5746V43.9889H88.937V41.9333Z" fill="white"/>
</mask>
<g mask="url(#mask20_71_1043)">
<path d="M89.2812 41.9944C89.233 41.9296 89.1409 41.9168 89.0767 41.9665C89.0119 42.0147 89.0001 42.1068 89.0489 42.1716C89.2228 42.3996 89.3149 42.6731 89.3149 42.9617C89.3149 43.2502 89.2228 43.5221 89.0489 43.7523C89.0001 43.8165 89.0119 43.9086 89.0767 43.9568C89.1029 43.9777 89.1334 43.9862 89.1645 43.9862C89.2084 43.9862 89.2523 43.9659 89.2812 43.9279C89.4953 43.6479 89.6061 43.3128 89.6061 42.9617C89.6061 42.6105 89.4937 42.2754 89.2812 41.996V41.9944Z" fill="#96C6FF"/>
</g>
<path d="M89.2444 59.5152C89.2444 59.5527 89.2406 59.5891 89.2331 59.6261C89.2262 59.6625 89.2155 59.6978 89.201 59.732C89.1866 59.7668 89.1694 59.7995 89.1485 59.83C89.1282 59.8611 89.1046 59.89 89.0779 59.9162C89.0517 59.9424 89.0233 59.966 88.9922 59.9863C88.9612 60.0072 88.9285 60.0249 88.8943 60.0388C88.86 60.0532 88.8247 60.0639 88.7878 60.0714C88.7514 60.0784 88.7144 60.0821 88.6775 60.0821C88.64 60.0821 88.6031 60.0784 88.5667 60.0714C88.5303 60.0639 88.4949 60.0532 88.4607 60.0388C88.4259 60.0249 88.3932 60.0072 88.3622 59.9863C88.3317 59.966 88.3028 59.9424 88.2765 59.9162C88.2503 59.89 88.2268 59.8611 88.2059 59.83C88.1855 59.7995 88.1679 59.7668 88.154 59.732C88.1395 59.6978 88.1288 59.6625 88.1213 59.6261C88.1143 59.5891 88.1106 59.5527 88.1106 59.5152C88.1106 59.4783 88.1143 59.4414 88.1213 59.405C88.1288 59.368 88.1395 59.3327 88.154 59.2985C88.1679 59.2642 88.1855 59.2315 88.2059 59.2005C88.2268 59.1694 88.2503 59.1411 88.2765 59.1143C88.3028 59.0881 88.3317 59.0645 88.3622 59.0442C88.3932 59.0233 88.4259 59.0056 88.4607 58.9917C88.4949 58.9773 88.5303 58.9666 88.5667 58.9596C88.6031 58.9521 88.64 58.9484 88.6775 58.9484C88.7144 58.9484 88.7514 58.9521 88.7878 58.9596C88.8247 58.9666 88.86 58.9773 88.8943 58.9917C88.9285 59.0056 88.9612 59.0233 88.9922 59.0442C89.0233 59.0645 89.0517 59.0881 89.0779 59.1143C89.1046 59.1411 89.1282 59.1694 89.1485 59.2005C89.1694 59.2315 89.1866 59.2642 89.201 59.2985C89.2155 59.3327 89.2262 59.368 89.2331 59.405C89.2406 59.4414 89.2444 59.4783 89.2444 59.5152Z" fill="#96C6FF"/>
<path d="M87.6968 60.2712C87.7289 60.2712 87.7626 60.2637 87.7931 60.2444C87.8836 60.1919 87.912 60.0763 87.859 59.9859C87.776 59.8461 87.7327 59.6834 87.7327 59.5153C87.7327 59.3472 87.776 59.1845 87.859 59.0448C87.912 58.9543 87.882 58.8392 87.7931 58.7862C87.7027 58.7332 87.5871 58.7632 87.5341 58.8521C87.4174 59.0507 87.3547 59.2793 87.3547 59.5153C87.3547 59.7514 87.4174 59.98 87.5341 60.1786C87.5699 60.239 87.6326 60.2712 87.6968 60.2712Z" fill="#96C6FF"/>
<mask id="mask21_71_1043" style="mask-type:luminance" maskUnits="userSpaceOnUse" x="86" y="58" width="2" height="3">
<path d="M86.5989 58.1727H87.4297V60.8444H86.5989V58.1727Z" fill="white"/>
</mask>
<g mask="url(#mask21_71_1043)">
<path d="M86.9769 59.5161C86.9769 59.1441 87.0962 58.7924 87.3211 58.4958C87.3831 58.4128 87.3682 58.294 87.2852 58.2314C87.2017 58.1693 87.0828 58.1843 87.0202 58.2672C86.7445 58.628 86.6011 59.0606 86.6011 59.5145C86.6011 59.9679 86.7467 60.4004 87.0202 60.7612C87.0582 60.8104 87.115 60.8367 87.1717 60.8367C87.2113 60.8367 87.2509 60.8233 87.2852 60.7992C87.3682 60.7366 87.3831 60.6177 87.3211 60.5342C87.0962 60.2398 86.9769 59.8865 86.9769 59.5145V59.5161Z" fill="#96C6FF"/>
</g>
<mask id="mask22_71_1043" style="mask-type:luminance" maskUnits="userSpaceOnUse" x="87" y="60" width="3" height="3">
<path d="M87.4297 60.2963H89.8964V62.7431H87.4297V60.2963Z" fill="white"/>
</mask>
<g mask="url(#mask22_71_1043)">
<path d="M89.6217 62.3492H89.4065L89.1041 60.3541C88.9756 60.4205 88.8322 60.4601 88.6775 60.4601C88.5222 60.4601 88.3788 60.4184 88.2503 60.3541L87.9479 62.3492H87.7327C87.6288 62.3492 87.5437 62.4343 87.5437 62.5382C87.5437 62.642 87.6288 62.7271 87.7327 62.7271H89.6217C89.7261 62.7271 89.8107 62.642 89.8107 62.5382C89.8107 62.4343 89.7261 62.3492 89.6217 62.3492Z" fill="#96C6FF"/>
</g>
<path d="M89.8203 58.8521C89.7673 58.7616 89.6522 58.7332 89.5617 58.7862C89.4707 58.8392 89.4423 58.9543 89.4953 59.0448C89.5783 59.1845 89.6217 59.3472 89.6217 59.5153C89.6217 59.6834 89.5783 59.8461 89.4953 59.9858C89.4423 60.0763 89.4728 60.1919 89.5617 60.2444C89.5917 60.2615 89.6238 60.2712 89.6581 60.2712C89.7223 60.2712 89.7865 60.2369 89.8203 60.1786C89.9375 59.98 89.9996 59.7514 89.9996 59.5153C89.9996 59.2793 89.9375 59.0507 89.8203 58.8521Z" fill="#96C6FF"/>
<mask id="mask23_71_1043" style="mask-type:luminance" maskUnits="userSpaceOnUse" x="89" y="58" width="2" height="3">
<path d="M89.8962 58.1727H90.7436V60.8444H89.8962V58.1727Z" fill="white"/>
</mask>
<g mask="url(#mask23_71_1043)">
<path d="M90.3363 58.2686C90.2737 58.185 90.1548 58.1685 90.0713 58.2327C89.9883 58.2948 89.9734 58.4136 90.0354 58.4971C90.2603 58.7915 90.3796 59.1448 90.3796 59.5174C90.3796 59.8894 90.2603 60.2406 90.0354 60.5377C89.9734 60.6207 89.9883 60.7395 90.0713 60.8021C90.1056 60.8284 90.1452 60.8396 90.1848 60.8396C90.2415 60.8396 90.2983 60.8134 90.3363 60.7641C90.612 60.4033 90.7554 59.9708 90.7554 59.5174C90.7554 59.064 90.6098 58.631 90.3363 58.2702V58.2686Z" fill="#96C6FF"/>
</g>
<path d="M112.065 47.9851V44.1818H129.984V47.9851H123.305V66H118.745V47.9851H112.065ZM137.934 66.3196C136.251 66.3196 134.802 65.9787 133.588 65.2969C132.381 64.608 131.45 63.6349 130.797 62.3778C130.143 61.1136 129.817 59.6186 129.817 57.8928C129.817 56.2095 130.143 54.7322 130.797 53.4609C131.45 52.1896 132.37 51.1989 133.556 50.4886C134.749 49.7784 136.148 49.4233 137.753 49.4233C138.833 49.4233 139.838 49.5973 140.768 49.9453C141.706 50.2862 142.523 50.8011 143.219 51.4901C143.922 52.179 144.469 53.0455 144.859 54.0895C145.25 55.1264 145.445 56.3409 145.445 57.733V58.9794H131.628V56.1669H141.173C141.173 55.5135 141.031 54.9347 140.747 54.4304C140.463 53.9261 140.069 53.532 139.564 53.2479C139.067 52.9567 138.488 52.8111 137.828 52.8111C137.139 52.8111 136.528 52.9709 135.996 53.2905C135.47 53.603 135.058 54.0256 134.76 54.5582C134.461 55.0838 134.309 55.6697 134.302 56.3161V58.9901C134.302 59.7997 134.451 60.4993 134.749 61.0888C135.055 61.6783 135.484 62.1328 136.038 62.4524C136.592 62.772 137.249 62.9318 138.009 62.9318C138.513 62.9318 138.975 62.8608 139.394 62.7188C139.813 62.5767 140.172 62.3636 140.47 62.0795C140.768 61.7955 140.996 61.4474 141.152 61.0355L145.349 61.3125C145.136 62.321 144.699 63.2017 144.039 63.9545C143.385 64.7003 142.54 65.2827 141.503 65.7017C140.474 66.1136 139.284 66.3196 137.934 66.3196ZM152.945 44.1818V66H148.407V44.1818H152.945ZM164.038 66.3196C162.355 66.3196 160.906 65.9787 159.691 65.2969C158.484 64.608 157.554 63.6349 156.9 62.3778C156.247 61.1136 155.92 59.6186 155.92 57.8928C155.92 56.2095 156.247 54.7322 156.9 53.4609C157.554 52.1896 158.473 51.1989 159.659 50.4886C160.853 49.7784 162.252 49.4233 163.857 49.4233C164.936 49.4233 165.941 49.5973 166.872 49.9453C167.809 50.2862 168.626 50.8011 169.322 51.4901C170.025 52.179 170.572 53.0455 170.963 54.0895C171.353 55.1264 171.549 56.3409 171.549 57.733V58.9794H157.731V56.1669H167.277C167.277 55.5135 167.135 54.9347 166.85 54.4304C166.566 53.9261 166.172 53.532 165.668 53.2479C165.171 52.9567 164.592 52.8111 163.931 52.8111C163.243 52.8111 162.632 52.9709 162.099 53.2905C161.574 53.603 161.162 54.0256 160.863 54.5582C160.565 55.0838 160.412 55.6697 160.405 56.3161V58.9901C160.405 59.7997 160.554 60.4993 160.853 61.0888C161.158 61.6783 161.588 62.1328 162.142 62.4524C162.696 62.772 163.353 62.9318 164.113 62.9318C164.617 62.9318 165.078 62.8608 165.498 62.7188C165.917 62.5767 166.275 62.3636 166.574 62.0795C166.872 61.7955 167.099 61.4474 167.255 61.0355L171.453 61.3125C171.24 62.321 170.803 63.2017 170.142 63.9545C169.489 64.7003 168.644 65.2827 167.607 65.7017C166.577 66.1136 165.387 66.3196 164.038 66.3196ZM188.125 54.3026L183.971 54.5582C183.9 54.2031 183.747 53.8835 183.512 53.5994C183.278 53.3082 182.969 53.0774 182.586 52.907C182.209 52.7294 181.758 52.6406 181.233 52.6406C180.529 52.6406 179.936 52.7898 179.453 53.0881C178.971 53.3793 178.729 53.7699 178.729 54.2599C178.729 54.6506 178.885 54.9808 179.198 55.2507C179.51 55.5206 180.047 55.7372 180.806 55.9006L183.768 56.4972C185.359 56.8239 186.545 57.3494 187.326 58.0739C188.108 58.7983 188.498 59.75 188.498 60.929C188.498 62.0014 188.182 62.9425 187.55 63.7521C186.925 64.5618 186.066 65.1939 184.972 65.6484C183.885 66.0959 182.632 66.3196 181.211 66.3196C179.045 66.3196 177.319 65.8686 176.034 64.9666C174.755 64.0575 174.006 62.8217 173.786 61.2592L178.25 61.0249C178.385 61.6854 178.711 62.1896 179.23 62.5376C179.748 62.8786 180.412 63.049 181.222 63.049C182.017 63.049 182.657 62.8963 183.14 62.5909C183.63 62.2784 183.878 61.8771 183.885 61.3871C183.878 60.9751 183.704 60.6378 183.363 60.375C183.022 60.1051 182.497 59.8991 181.787 59.7571L178.953 59.1925C177.355 58.8729 176.165 58.3189 175.384 57.5305C174.61 56.7422 174.223 55.7372 174.223 54.5156C174.223 53.4645 174.507 52.5589 175.075 51.799C175.65 51.0391 176.456 50.4531 177.493 50.0412C178.537 49.6293 179.759 49.4233 181.158 49.4233C183.225 49.4233 184.851 49.8601 186.037 50.7337C187.23 51.6072 187.926 52.7969 188.125 54.3026ZM198.813 66.3196C197.13 66.3196 195.681 65.9787 194.467 65.2969C193.259 64.608 192.329 63.6349 191.676 62.3778C191.022 61.1136 190.695 59.6186 190.695 57.8928C190.695 56.2095 191.022 54.7322 191.676 53.4609C192.329 52.1896 193.249 51.1989 194.435 50.4886C195.628 49.7784 197.027 49.4233 198.632 49.4233C199.712 49.4233 200.717 49.5973 201.647 49.9453C202.585 50.2862 203.401 50.8011 204.097 51.4901C204.801 52.179 205.347 53.0455 205.738 54.0895C206.129 55.1264 206.324 56.3409 206.324 57.733V58.9794H192.507V56.1669H202.052C202.052 55.5135 201.91 54.9347 201.626 54.4304C201.342 53.9261 200.948 53.532 200.443 53.2479C199.946 52.9567 199.367 52.8111 198.707 52.8111C198.018 52.8111 197.407 52.9709 196.874 53.2905C196.349 53.603 195.937 54.0256 195.639 54.5582C195.34 55.0838 195.188 55.6697 195.181 56.3161V58.9901C195.181 59.7997 195.33 60.4993 195.628 61.0888C195.933 61.6783 196.363 62.1328 196.917 62.4524C197.471 62.772 198.128 62.9318 198.888 62.9318C199.392 62.9318 199.854 62.8608 200.273 62.7188C200.692 62.5767 201.051 62.3636 201.349 62.0795C201.647 61.7955 201.874 61.4474 202.031 61.0355L206.228 61.3125C206.015 62.321 205.578 63.2017 204.918 63.9545C204.264 64.7003 203.419 65.2827 202.382 65.7017C201.352 66.1136 200.163 66.3196 198.813 66.3196ZM213.824 56.5398V66H209.286V49.6364H213.611V52.5234H213.803C214.165 51.5717 214.772 50.8189 215.624 50.2649C216.477 49.7038 217.51 49.4233 218.725 49.4233C219.861 49.4233 220.852 49.6719 221.697 50.169C222.542 50.6662 223.199 51.3764 223.668 52.2997C224.137 53.2159 224.371 54.3097 224.371 55.581V66H219.833V56.3906C219.84 55.3892 219.584 54.608 219.066 54.0469C218.547 53.4787 217.833 53.1946 216.924 53.1946C216.313 53.1946 215.774 53.326 215.305 53.5888C214.843 53.8516 214.481 54.2351 214.218 54.7393C213.963 55.2365 213.831 55.8366 213.824 56.5398ZM236.652 49.6364V53.0455H226.797V49.6364H236.652ZM229.034 45.7159H233.573V60.9716C233.573 61.3906 233.637 61.7173 233.765 61.9517C233.892 62.179 234.07 62.3388 234.297 62.4311C234.532 62.5234 234.801 62.5696 235.107 62.5696C235.32 62.5696 235.533 62.5518 235.746 62.5163C235.959 62.4737 236.123 62.4418 236.236 62.4205L236.95 65.7976C236.723 65.8686 236.403 65.9503 235.991 66.0426C235.579 66.142 235.078 66.2024 234.489 66.2237C233.395 66.2663 232.436 66.1207 231.613 65.7869C230.796 65.4531 230.16 64.9347 229.706 64.2315C229.251 63.5284 229.027 62.6406 229.034 61.5682V45.7159ZM239.608 66V49.6364H244.008V52.4915H244.178C244.477 51.4759 244.977 50.7088 245.68 50.1903C246.384 49.6648 247.193 49.402 248.109 49.402C248.337 49.402 248.582 49.4162 248.844 49.4446C249.107 49.473 249.338 49.5121 249.537 49.5618V53.5888C249.324 53.5249 249.029 53.468 248.653 53.4183C248.276 53.3686 247.932 53.3438 247.619 53.3438C246.952 53.3438 246.355 53.4893 245.83 53.7805C245.311 54.0646 244.899 54.4624 244.594 54.9737C244.295 55.4851 244.146 56.0746 244.146 56.7422V66H239.608ZM255.183 72.1364C254.608 72.1364 254.068 72.0902 253.564 71.9979C253.067 71.9126 252.655 71.8026 252.328 71.6676L253.351 68.2798C253.884 68.4432 254.363 68.532 254.789 68.5462C255.222 68.5604 255.595 68.4609 255.908 68.2479C256.227 68.0348 256.487 67.6726 256.685 67.1612L256.952 66.4688L251.082 49.6364H255.854L259.242 61.6534H259.413L262.832 49.6364H267.637L261.277 67.7685C260.972 68.6491 260.556 69.4162 260.031 70.0696C259.512 70.7301 258.855 71.2379 258.06 71.593C257.264 71.9553 256.305 72.1364 255.183 72.1364Z" fill="white"/>
<defs>
<linearGradient id="paint0_linear_71_1043" x1="11" y1="55" x2="213.692" y2="55.6265" gradientUnits="userSpaceOnUse">
<stop stop-color="#175FCB"/>
<stop offset="1" stop-color="#737373" stop-opacity="0"/>
</linearGradient>
</defs>
</svg>
