<svg xmlns="http://www.w3.org/2000/svg" xmlns:xlink="http://www.w3.org/1999/xlink" width="1080" zoomAndPan="magnify" viewBox="0 0 810 809.999993" height="1080" preserveAspectRatio="xMidYMid meet" version="1.0"><defs><clipPath id="5318ae33ac"><path d="M 81 81 L 729 81 L 729 729 L 81 729 Z M 81 81 " clip-rule="nonzero"/></clipPath><clipPath id="df33d0e149"><path d="M 405 81 C 226.058594 81 81 226.058594 81 405 C 81 583.941406 226.058594 729 405 729 C 583.941406 729 729 583.941406 729 405 C 729 226.058594 583.941406 81 405 81 Z M 405 81 " clip-rule="nonzero"/></clipPath><clipPath id="6cd6610ec9"><path d="M 81 81 L 729.363281 81 L 729.363281 729.363281 L 81 729.363281 Z M 81 81 " clip-rule="nonzero"/></clipPath><clipPath id="3a5788f7b7"><path d="M 243.070312 582.398438 L 251 582.398438 L 251 607 L 243.070312 607 Z M 243.070312 582.398438 " clip-rule="nonzero"/></clipPath><clipPath id="25d552141e"><path d="M 274 582.398438 L 281 582.398438 L 281 607 L 274 607 Z M 274 582.398438 " clip-rule="nonzero"/></clipPath><clipPath id="d4b01dc326"><path d="M 345.097656 188.300781 L 596.378906 188.300781 L 596.378906 439.578125 L 345.097656 439.578125 Z M 345.097656 188.300781 " clip-rule="nonzero"/></clipPath><clipPath id="1a98bfab5e"><path d="M 470.738281 188.300781 C 401.351562 188.300781 345.097656 244.550781 345.097656 313.9375 C 345.097656 383.328125 401.351562 439.578125 470.738281 439.578125 C 540.128906 439.578125 596.378906 383.328125 596.378906 313.9375 C 596.378906 244.550781 540.128906 188.300781 470.738281 188.300781 Z M 470.738281 188.300781 " clip-rule="nonzero"/></clipPath><clipPath id="a83f718519"><path d="M 399.523438 236 L 426 236 L 426 328 L 399.523438 328 Z M 399.523438 236 " clip-rule="nonzero"/></clipPath><clipPath id="75fc5176fd"><path d="M 431 310 L 510 310 L 510 391.78125 L 431 391.78125 Z M 431 310 " clip-rule="nonzero"/></clipPath><clipPath id="b4237750f7"><path d="M 191.019531 291.476562 L 196 291.476562 L 196 307 L 191.019531 307 Z M 191.019531 291.476562 " clip-rule="nonzero"/></clipPath><clipPath id="e5fca7c92a"><path d="M 196 303 L 210 303 L 210 317.070312 L 196 317.070312 Z M 196 303 " clip-rule="nonzero"/></clipPath><clipPath id="1f585ee97e"><path d="M 210 291.476562 L 214.289062 291.476562 L 214.289062 307 L 210 307 Z M 210 291.476562 " clip-rule="nonzero"/></clipPath><clipPath id="d82cd56464"><path d="M 255.933594 171 L 261 171 L 261 186 L 255.933594 186 Z M 255.933594 171 " clip-rule="nonzero"/></clipPath><clipPath id="0795bc4e2f"><path d="M 261 183 L 275 183 L 275 196.527344 L 261 196.527344 Z M 261 183 " clip-rule="nonzero"/></clipPath><clipPath id="f0c1a8023e"><path d="M 275 171 L 279.199219 171 L 279.199219 187 L 275 187 Z M 275 171 " clip-rule="nonzero"/></clipPath><clipPath id="5674524a7f"><path d="M 491.257812 129.152344 L 496 129.152344 L 496 145 L 491.257812 145 Z M 491.257812 129.152344 " clip-rule="nonzero"/></clipPath><clipPath id="38c1e5b649"><path d="M 496 141 L 510 141 L 510 154.742188 L 496 154.742188 Z M 496 141 " clip-rule="nonzero"/></clipPath><clipPath id="c18cd15ffd"><path d="M 510 129.152344 L 514.523438 129.152344 L 514.523438 145 L 510 145 Z M 510 129.152344 " clip-rule="nonzero"/></clipPath><clipPath id="b0895868f2"><path d="M 630.386719 306 L 635 306 L 635 321 L 630.386719 321 Z M 630.386719 306 " clip-rule="nonzero"/></clipPath><clipPath id="f7742e9181"><path d="M 635 318 L 649 318 L 649 331.5 L 635 331.5 Z M 635 318 " clip-rule="nonzero"/></clipPath><clipPath id="2112ee6bd6"><path d="M 649 306 L 653.652344 306 L 653.652344 321 L 649 321 Z M 649 306 " clip-rule="nonzero"/></clipPath><clipPath id="04b93ed273"><path d="M 631.9375 424.503906 L 638 424.503906 L 638 444 L 631.9375 444 Z M 631.9375 424.503906 " clip-rule="nonzero"/></clipPath><clipPath id="e4dfacd5d2"><path d="M 638 440 L 656 440 L 656 457.855469 L 638 457.855469 Z M 638 440 " clip-rule="nonzero"/></clipPath><clipPath id="37a99bf5ee"><path d="M 656 424.503906 L 662.183594 424.503906 L 662.183594 444 L 656 444 Z M 656 424.503906 " clip-rule="nonzero"/></clipPath></defs><g clip-path="url(#5318ae33ac)"><g clip-path="url(#df33d0e149)"><path fill="#212087" d="M 81 81 L 729 81 L 729 729 L 81 729 Z M 81 81 " fill-opacity="1" fill-rule="nonzero"/></g></g><g clip-path="url(#6cd6610ec9)"><path fill="#175fcb" d="M 207.882812 327.933594 C 218.492188 325.734375 226.488281 316.339844 226.488281 305.082031 L 226.488281 304.511719 C 233.554688 301.097656 240.722656 297.886719 247.992188 294.835938 C 299.464844 273.382812 355.984375 261.503906 415.296875 261.503906 C 444.464844 261.503906 472.957031 264.375 500.492188 269.835938 C 503.105469 281.921875 511.722656 291.753906 523.082031 296.023438 C 518.710938 344.882812 503.882812 393.636719 477.847656 438.925781 C 447.386719 491.875 405.15625 533.847656 356.398438 563.425781 C 336.808594 575.304688 316.132812 585.191406 294.703125 593.007812 C 290.433594 579.265625 277.652344 569.300781 262.511719 569.300781 C 255.914062 569.300781 249.78125 571.191406 244.578125 574.476562 L 244.34375 574.089844 C 215.957031 523.574219 199.757812 465.246094 199.757812 403.136719 C 199.757812 377.335938 202.550781 352.15625 207.855469 327.933594 Z M 361.625 572.097656 C 411.832031 541.664062 455.308594 498.472656 486.621094 444 C 513.199219 397.777344 528.386719 348.09375 533.070312 298.277344 L 535.867188 298.378906 C 543.941406 298.378906 551.394531 295.738281 557.421875 291.261719 C 590.339844 324.335938 616.683594 363.957031 634.335938 408.027344 C 621.394531 412.710938 612.132812 425.160156 612.132812 439.726562 C 612.132812 451.527344 618.210938 461.933594 627.398438 467.9375 C 599.320312 511.929688 560.089844 549.738281 511.152344 576.703125 C 448.65625 611.121094 379.742188 622.664062 314.035156 614.148438 C 307.746094 613.347656 301.484375 612.3125 295.25 611.148438 C 295.871094 608.613281 296.230469 605.972656 296.230469 603.253906 C 318.953125 595.101562 340.871094 584.699219 361.625 572.121094 Z M 516.019531 585.578125 C 566.945312 557.527344 607.652344 518.0625 636.691406 472.152344 L 639.226562 472.773438 C 626.933594 524.300781 601.289062 570.648438 566.171875 607.9375 C 515.605469 661.609375 445.34375 696.574219 366.957031 701.308594 L 366.59375 701.257812 C 335.152344 681.925781 306.972656 657.730469 283.109375 629.726562 C 286.320312 627.242188 289.089844 624.191406 291.210938 620.722656 C 298.328125 622.121094 305.496094 623.308594 312.714844 624.242188 C 380.492188 633.039062 451.582031 621.109375 516.019531 585.632812 Z M 422.105469 703.199219 C 480.980469 688.835938 533.304688 657.574219 573.546875 614.847656 C 610.320312 575.824219 637.027344 527.222656 649.578125 473.1875 C 650.792969 473.058594 652.007812 472.828125 653.199219 472.566406 C 657.210938 493.738281 659.308594 515.605469 659.308594 537.9375 L 659.074219 551.265625 L 658.402344 563.273438 C 646.367188 582.472656 632.210938 600.226562 616.273438 616.167969 C 565.988281 666.449219 497.800781 698.902344 422.128906 703.171875 Z M 405.023438 729.023438 C 583.976562 729.023438 729.023438 583.976562 729.023438 405.023438 C 729.023438 226.074219 583.976562 81.027344 405.023438 81.027344 C 226.074219 81.027344 81.027344 226.074219 81.027344 405.023438 C 81.027344 583.976562 226.074219 729.023438 405.023438 729.023438 Z M 415.296875 251.382812 C 354.640625 251.382812 296.800781 263.546875 244.085938 285.519531 C 237.304688 288.363281 230.578125 291.367188 223.953125 294.523438 C 222.738281 292.117188 221.105469 289.941406 219.140625 288.105469 C 225.609375 269.523438 233.578125 251.667969 242.949219 234.691406 C 248.539062 224.546875 254.644531 214.714844 261.167969 205.191406 C 263.210938 205.785156 265.359375 206.097656 267.585938 206.097656 C 278.351562 206.097656 287.40625 198.800781 290.097656 188.886719 C 296.566406 188.523438 303.089844 188.34375 309.636719 188.34375 C 381.191406 188.34375 447.699219 209.847656 503.105469 246.726562 C 501.242188 250.632812 500.078125 254.902344 499.742188 259.40625 C 472.386719 254.128906 444.128906 251.382812 415.246094 251.382812 Z M 189.636719 403.160156 C 189.636719 467.054688 206.328125 527.066406 235.519531 579.058594 L 236.761719 581.285156 C 234.175781 584.335938 232.128906 587.910156 230.757812 591.765625 C 194.839844 576.78125 161.480469 555.222656 132.652344 527.792969 C 115.730469 490.347656 106.335938 448.757812 106.335938 405 C 106.335938 399.980469 106.464844 394.957031 106.699219 389.988281 C 131.617188 364.914062 159.566406 342.839844 189.972656 324.386719 C 192.25 325.941406 194.789062 327.105469 197.53125 327.777344 C 192.328125 352.101562 189.613281 377.308594 189.613281 403.160156 Z M 145.074219 552.222656 C 170.589844 572.976562 198.875 589.667969 228.84375 601.960938 L 228.816406 603.046875 C 228.816406 605.402344 229.050781 607.730469 229.515625 609.929688 C 216.941406 611.925781 204.207031 613.242188 191.449219 613.863281 C 173.464844 595.464844 157.832031 574.761719 145.050781 552.222656 Z M 572.070312 262.203125 C 572.070312 242.222656 555.871094 226.023438 535.894531 226.023438 C 534.78125 226.023438 533.667969 226.101562 532.582031 226.179688 C 530.199219 204.078125 525.75 182.210938 519.355469 160.964844 C 519.976562 160.421875 520.597656 159.824219 521.167969 159.230469 C 540.1875 172.6875 557.554688 188.316406 572.949219 205.785156 C 596.757812 232.804688 615.726562 264.167969 628.589844 298.535156 C 626.699219 299.804688 625.019531 301.277344 623.570312 303.011719 C 605.816406 293.617188 587.339844 285.363281 568.265625 278.402344 C 570.699219 273.535156 572.070312 268.023438 572.070312 262.203125 Z M 638.0625 294.859375 C 624.757812 259.355469 605.144531 226.953125 580.535156 199.03125 C 564.515625 180.839844 546.398438 164.585938 526.523438 150.5625 C 527.585938 147.742188 528.15625 144.6875 528.15625 141.476562 C 528.15625 138.089844 527.507812 134.878906 526.34375 131.929688 C 560.0625 146.914062 590.523438 168.003906 616.246094 193.726562 C 642.046875 219.527344 663.113281 250.011719 678.121094 283.808594 C 678.640625 301.070312 677.785156 318.304688 675.558594 335.308594 C 671.445312 332.359375 667.304688 329.460938 663.085938 326.640625 C 664.171875 323.949219 664.769531 320.996094 664.769531 317.917969 C 664.769531 305.03125 654.3125 294.574219 641.425781 294.574219 C 640.261719 294.574219 639.121094 294.628906 638.007812 294.808594 Z M 644.503906 406.035156 C 627.375 362.558594 601.988281 323.222656 570.335938 289.941406 C 587.054688 296.308594 603.230469 303.683594 618.910156 311.992188 C 618.417969 313.878906 618.160156 315.875 618.160156 317.945312 C 618.160156 330.675781 628.355469 341.027344 641.039062 341.261719 C 645.230469 361.210938 647.457031 381.914062 647.457031 403.136719 L 647.402344 406.035156 L 645.875 406.007812 L 644.53125 406.035156 Z M 233.21875 619.582031 C 238.988281 629.804688 249.988281 636.714844 262.5625 636.714844 C 266.625 636.714844 270.484375 635.992188 274.078125 634.695312 C 293.902344 658.246094 316.648438 679.183594 341.804688 696.988281 C 288.183594 685.417969 239.921875 659.488281 201.285156 623.414062 C 211.996094 622.613281 222.632812 621.316406 233.191406 619.582031 Z M 657.597656 403.136719 C 657.597656 381.242188 655.320312 359.867188 650.976562 339.269531 C 653.355469 338.207031 655.503906 336.757812 657.390625 334.996094 C 662.980469 338.75 668.519531 342.65625 673.929688 346.644531 C 670.488281 367.449219 665 387.867188 657.574219 407.613281 L 657.625 403.109375 Z M 669.476562 537.964844 C 669.476562 514.308594 667.199219 491.199219 662.828125 468.816406 C 672.84375 462.96875 679.542969 452.125 679.542969 439.703125 C 679.542969 428.808594 674.367188 419.128906 666.371094 412.96875 C 679.027344 379.871094 686.402344 344.804688 688.085938 309.25 C 698.230469 339.292969 703.742188 371.511719 703.742188 404.972656 C 703.742188 455.28125 691.320312 502.664062 669.347656 544.277344 Z M 508.773438 238.210938 C 451.761719 200.273438 383.3125 178.148438 309.714844 178.148438 C 303.324219 178.148438 296.980469 178.328125 290.640625 178.640625 C 290.148438 175.949219 289.21875 173.414062 287.898438 171.109375 C 308.757812 147.609375 332.71875 126.960938 359.140625 109.777344 C 368.199219 108.378906 377.386719 107.371094 386.703125 106.828125 C 418.949219 110.914062 449.613281 120.152344 477.796875 133.6875 C 477.019531 136.148438 476.605469 138.761719 476.605469 141.503906 C 476.605469 155.761719 488.148438 167.277344 502.40625 167.277344 C 505.175781 167.277344 507.816406 166.839844 510.300781 166.035156 C 516.277344 186.429688 520.417969 207.339844 522.617188 228.480469 C 517.261719 230.605469 512.523438 233.941406 508.773438 238.1875 Z M 482.738281 124.785156 C 469.539062 118.421875 455.824219 112.984375 441.667969 108.507812 C 458.386719 110.554688 474.664062 113.96875 490.398438 118.652344 C 487.449219 120.179688 484.859375 122.277344 482.738281 124.785156 Z M 234.125 229.777344 C 224.808594 246.675781 216.8125 264.402344 210.289062 282.828125 C 208.039062 282.128906 205.683594 281.738281 203.199219 281.738281 C 190.3125 281.738281 179.855469 292.195312 179.855469 305.082031 C 179.855469 309.351562 180.996094 313.3125 182.988281 316.753906 C 155.890625 333.367188 130.738281 352.800781 107.914062 374.617188 C 113.96875 314.578125 137.777344 259.820312 174.035156 215.621094 C 194.996094 206.769531 217.019531 199.9375 239.765625 195.304688 L 247.167969 193.882812 C 248.511719 196.289062 250.246094 198.460938 252.316406 200.273438 C 245.792969 209.796875 239.738281 219.632812 234.148438 229.777344 Z M 267.660156 159.386719 C 254.773438 159.386719 244.320312 169.839844 244.320312 182.726562 L 244.371094 184.125 L 237.746094 185.417969 C 220.925781 188.835938 204.542969 193.417969 188.707031 199.082031 L 193.882812 193.777344 C 232 155.660156 280.367188 127.789062 334.53125 114.695312 C 315.125 129.1875 297.1875 145.59375 281.066406 163.628906 C 277.289062 160.964844 272.683594 159.410156 267.6875 159.410156 Z M 267.660156 159.386719 " fill-opacity="1" fill-rule="evenodd"/></g><path fill="#6aa6ff" d="M 267.191406 594.640625 C 267.191406 594.980469 267.160156 595.316406 267.09375 595.648438 C 267.027344 595.980469 266.929688 596.304688 266.800781 596.617188 C 266.671875 596.933594 266.511719 597.230469 266.320312 597.511719 C 266.132812 597.792969 265.917969 598.054688 265.679688 598.296875 C 265.4375 598.535156 265.179688 598.75 264.894531 598.9375 C 264.613281 599.128906 264.316406 599.285156 264.003906 599.417969 C 263.6875 599.546875 263.367188 599.644531 263.03125 599.710938 C 262.699219 599.777344 262.363281 599.808594 262.023438 599.808594 C 261.683594 599.808594 261.347656 599.777344 261.015625 599.710938 C 260.683594 599.644531 260.359375 599.546875 260.046875 599.417969 C 259.734375 599.285156 259.433594 599.128906 259.152344 598.9375 C 258.871094 598.75 258.609375 598.535156 258.371094 598.296875 C 258.128906 598.054688 257.914062 597.792969 257.726562 597.511719 C 257.539062 597.230469 257.378906 596.933594 257.25 596.617188 C 257.117188 596.304688 257.019531 595.980469 256.953125 595.648438 C 256.886719 595.316406 256.855469 594.980469 256.855469 594.640625 C 256.855469 594.300781 256.886719 593.964844 256.953125 593.632812 C 257.019531 593.300781 257.117188 592.976562 257.25 592.664062 C 257.378906 592.347656 257.539062 592.050781 257.726562 591.769531 C 257.914062 591.488281 258.128906 591.226562 258.371094 590.984375 C 258.609375 590.746094 258.871094 590.53125 259.152344 590.34375 C 259.433594 590.15625 259.734375 589.996094 260.046875 589.867188 C 260.359375 589.734375 260.683594 589.636719 261.015625 589.570312 C 261.347656 589.503906 261.683594 589.472656 262.023438 589.472656 C 262.363281 589.472656 262.699219 589.503906 263.03125 589.570312 C 263.367188 589.636719 263.6875 589.734375 264.003906 589.867188 C 264.316406 589.996094 264.613281 590.15625 264.894531 590.34375 C 265.179688 590.53125 265.4375 590.746094 265.679688 590.984375 C 265.917969 591.226562 266.132812 591.488281 266.320312 591.769531 C 266.511719 592.050781 266.671875 592.347656 266.800781 592.664062 C 266.929688 592.976562 267.027344 593.300781 267.09375 593.632812 C 267.160156 593.964844 267.191406 594.300781 267.191406 594.640625 Z M 267.191406 594.640625 " fill-opacity="1" fill-rule="nonzero"/><path fill="#6aa6ff" d="M 253.082031 601.53125 C 253.375 601.53125 253.683594 601.464844 253.960938 601.292969 C 254.789062 600.808594 255.046875 599.757812 254.5625 598.929688 C 253.804688 597.65625 253.410156 596.175781 253.410156 594.640625 C 253.410156 593.105469 253.804688 591.625 254.5625 590.351562 C 255.046875 589.523438 254.769531 588.472656 253.960938 587.988281 C 253.132812 587.507812 252.082031 587.785156 251.601562 588.59375 C 250.53125 590.402344 249.964844 592.488281 249.964844 594.640625 C 249.964844 596.792969 250.53125 598.878906 251.601562 600.6875 C 251.929688 601.238281 252.496094 601.53125 253.082031 601.53125 Z M 253.082031 601.53125 " fill-opacity="1" fill-rule="nonzero"/><g clip-path="url(#3a5788f7b7)"><path fill="#6aa6ff" d="M 246.519531 594.640625 C 246.519531 591.246094 247.601562 588.042969 249.652344 585.335938 C 250.222656 584.578125 250.085938 583.492188 249.328125 582.925781 C 248.566406 582.355469 247.484375 582.492188 246.914062 583.253906 C 244.398438 586.542969 243.089844 590.488281 243.089844 594.625 C 243.089844 598.757812 244.414062 602.703125 246.914062 605.996094 C 247.257812 606.441406 247.777344 606.683594 248.292969 606.683594 C 248.652344 606.683594 249.015625 606.5625 249.328125 606.339844 C 250.085938 605.769531 250.222656 604.6875 249.652344 603.925781 C 247.601562 601.238281 246.519531 598.019531 246.519531 594.625 Z M 246.519531 594.640625 " fill-opacity="1" fill-rule="nonzero"/></g><path fill="#6aa6ff" d="M 270.640625 620.484375 L 268.675781 620.484375 L 265.917969 602.289062 C 264.746094 602.894531 263.4375 603.253906 262.023438 603.253906 C 260.613281 603.253906 259.300781 602.875 258.128906 602.289062 L 255.375 620.484375 L 253.410156 620.484375 C 252.460938 620.484375 251.6875 621.261719 251.6875 622.207031 C 251.6875 623.15625 252.460938 623.929688 253.410156 623.929688 L 270.640625 623.929688 C 271.585938 623.929688 272.363281 623.15625 272.363281 622.207031 C 272.363281 621.261719 271.585938 620.484375 270.640625 620.484375 Z M 270.640625 620.484375 " fill-opacity="1" fill-rule="nonzero"/><path fill="#6aa6ff" d="M 272.449219 588.59375 C 271.964844 587.765625 270.914062 587.507812 270.085938 587.988281 C 269.261719 588.472656 269.003906 589.523438 269.484375 590.351562 C 270.242188 591.625 270.640625 593.105469 270.640625 594.640625 C 270.640625 596.175781 270.242188 597.65625 269.484375 598.929688 C 269.003906 599.757812 269.277344 600.808594 270.085938 601.292969 C 270.363281 601.445312 270.65625 601.53125 270.964844 601.53125 C 271.550781 601.53125 272.136719 601.222656 272.449219 600.6875 C 273.515625 598.878906 274.085938 596.792969 274.085938 594.640625 C 274.085938 592.488281 273.515625 590.402344 272.449219 588.59375 Z M 272.449219 588.59375 " fill-opacity="1" fill-rule="nonzero"/><g clip-path="url(#25d552141e)"><path fill="#6aa6ff" d="M 277.152344 583.269531 C 276.582031 582.511719 275.496094 582.355469 274.738281 582.941406 C 273.980469 583.511719 273.84375 584.597656 274.414062 585.355469 C 276.460938 588.042969 277.546875 591.265625 277.546875 594.65625 C 277.546875 598.050781 276.460938 601.257812 274.414062 603.960938 C 273.84375 604.71875 273.980469 605.804688 274.738281 606.375 C 275.050781 606.617188 275.410156 606.71875 275.773438 606.71875 C 276.289062 606.71875 276.808594 606.476562 277.152344 606.03125 C 279.667969 602.738281 280.976562 598.792969 280.976562 594.65625 C 280.976562 590.523438 279.648438 586.578125 277.152344 583.285156 Z M 277.152344 583.269531 " fill-opacity="1" fill-rule="nonzero"/></g><g clip-path="url(#d4b01dc326)"><g clip-path="url(#1a98bfab5e)"><path fill="#175fcb" d="M 345.097656 188.300781 L 596.378906 188.300781 L 596.378906 439.578125 L 345.097656 439.578125 Z M 345.097656 188.300781 " fill-opacity="1" fill-rule="nonzero"/></g></g><path fill="#a6caff" d="M 490.15625 281.890625 C 490.15625 282.523438 490.125 283.160156 490.0625 283.792969 C 490 284.425781 489.90625 285.054688 489.78125 285.675781 C 489.660156 286.300781 489.503906 286.917969 489.320312 287.527344 C 489.132812 288.136719 488.921875 288.734375 488.675781 289.320312 C 488.433594 289.910156 488.164062 290.484375 487.863281 291.042969 C 487.5625 291.605469 487.234375 292.148438 486.882812 292.679688 C 486.527344 293.207031 486.152344 293.71875 485.746094 294.210938 C 485.34375 294.703125 484.917969 295.171875 484.46875 295.621094 C 484.015625 296.070312 483.546875 296.5 483.054688 296.902344 C 482.5625 297.304688 482.054688 297.683594 481.523438 298.035156 C 480.996094 298.390625 480.449219 298.71875 479.890625 299.015625 C 479.328125 299.316406 478.753906 299.589844 478.167969 299.832031 C 477.578125 300.074219 476.980469 300.289062 476.371094 300.472656 C 475.761719 300.660156 475.148438 300.8125 474.523438 300.9375 C 473.898438 301.0625 473.269531 301.152344 472.636719 301.214844 C 472.003906 301.277344 471.371094 301.308594 470.734375 301.308594 C 470.097656 301.308594 469.464844 301.277344 468.832031 301.214844 C 468.199219 301.152344 467.570312 301.0625 466.945312 300.9375 C 466.320312 300.8125 465.707031 300.660156 465.097656 300.472656 C 464.488281 300.289062 463.890625 300.074219 463.300781 299.832031 C 462.714844 299.589844 462.140625 299.316406 461.578125 299.015625 C 461.019531 298.71875 460.472656 298.390625 459.945312 298.035156 C 459.414062 297.683594 458.90625 297.304688 458.414062 296.902344 C 457.921875 296.5 457.453125 296.070312 457 295.621094 C 456.550781 295.171875 456.125 294.703125 455.722656 294.210938 C 455.316406 293.71875 454.941406 293.207031 454.585938 292.679688 C 454.234375 292.148438 453.90625 291.605469 453.605469 291.042969 C 453.304688 290.484375 453.035156 289.910156 452.792969 289.320312 C 452.546875 288.734375 452.332031 288.136719 452.148438 287.527344 C 451.964844 286.917969 451.808594 286.300781 451.6875 285.675781 C 451.5625 285.054688 451.46875 284.425781 451.40625 283.792969 C 451.34375 283.160156 451.3125 282.523438 451.3125 281.890625 C 451.3125 281.253906 451.34375 280.617188 451.40625 279.984375 C 451.46875 279.351562 451.5625 278.722656 451.6875 278.101562 C 451.808594 277.476562 451.964844 276.859375 452.148438 276.25 C 452.332031 275.640625 452.546875 275.042969 452.792969 274.457031 C 453.035156 273.867188 453.304688 273.292969 453.605469 272.734375 C 453.90625 272.171875 454.234375 271.628906 454.585938 271.097656 C 454.941406 270.570312 455.316406 270.058594 455.722656 269.566406 C 456.125 269.078125 456.550781 268.605469 457 268.15625 C 457.453125 267.707031 457.921875 267.28125 458.414062 266.875 C 458.90625 266.472656 459.414062 266.09375 459.945312 265.742188 C 460.472656 265.386719 461.019531 265.0625 461.578125 264.761719 C 462.140625 264.460938 462.714844 264.1875 463.300781 263.945312 C 463.890625 263.703125 464.488281 263.488281 465.097656 263.304688 C 465.707031 263.121094 466.320312 262.964844 466.945312 262.839844 C 467.570312 262.714844 468.199219 262.625 468.832031 262.5625 C 469.464844 262.5 470.097656 262.46875 470.734375 262.46875 C 471.371094 262.46875 472.003906 262.5 472.636719 262.5625 C 473.269531 262.625 473.898438 262.714844 474.523438 262.839844 C 475.148438 262.964844 475.761719 263.121094 476.371094 263.304688 C 476.980469 263.488281 477.578125 263.703125 478.167969 263.945312 C 478.753906 264.1875 479.328125 264.460938 479.890625 264.761719 C 480.449219 265.0625 480.996094 265.386719 481.523438 265.742188 C 482.054688 266.09375 482.5625 266.472656 483.054688 266.875 C 483.546875 267.28125 484.015625 267.707031 484.46875 268.15625 C 484.917969 268.605469 485.34375 269.078125 485.746094 269.566406 C 486.152344 270.058594 486.527344 270.570312 486.882812 271.097656 C 487.234375 271.628906 487.5625 272.171875 487.863281 272.734375 C 488.164062 273.292969 488.433594 273.867188 488.675781 274.457031 C 488.921875 275.042969 489.132812 275.640625 489.320312 276.25 C 489.503906 276.859375 489.660156 277.476562 489.78125 278.101562 C 489.90625 278.722656 490 279.351562 490.0625 279.984375 C 490.125 280.617188 490.15625 281.253906 490.15625 281.890625 Z M 490.15625 281.890625 " fill-opacity="1" fill-rule="nonzero"/><path fill="#a6caff" d="M 437.136719 307.785156 C 438.234375 307.785156 439.402344 307.523438 440.4375 306.878906 C 443.542969 305.066406 444.515625 301.117188 442.703125 298.007812 C 439.855469 293.21875 438.367188 287.652344 438.367188 281.890625 C 438.367188 276.128906 439.855469 270.558594 442.703125 265.769531 C 444.515625 262.660156 443.480469 258.710938 440.4375 256.898438 C 437.328125 255.085938 433.378906 256.125 431.566406 259.164062 C 427.554688 265.964844 425.417969 273.796875 425.417969 281.890625 C 425.417969 289.980469 427.554688 297.8125 431.566406 304.613281 C 432.796875 306.683594 434.933594 307.785156 437.136719 307.785156 Z M 437.136719 307.785156 " fill-opacity="1" fill-rule="nonzero"/><g clip-path="url(#a83f718519)"><path fill="#a6caff" d="M 412.46875 281.890625 C 412.46875 269.136719 416.550781 257.09375 424.253906 246.929688 C 426.390625 244.082031 425.871094 240.003906 423.023438 237.867188 C 420.175781 235.730469 416.097656 236.25 413.960938 239.097656 C 404.507812 251.460938 399.585938 266.285156 399.585938 281.824219 C 399.585938 297.359375 404.574219 312.1875 413.960938 324.550781 C 415.253906 326.234375 417.195312 327.140625 419.136719 327.140625 C 420.496094 327.140625 421.855469 326.6875 423.023438 325.847656 C 425.871094 323.710938 426.390625 319.632812 424.253906 316.78125 C 416.550781 306.683594 412.46875 294.578125 412.46875 281.824219 Z M 412.46875 281.890625 " fill-opacity="1" fill-rule="nonzero"/></g><g clip-path="url(#75fc5176fd)"><path fill="#a6caff" d="M 503.101562 378.996094 L 495.722656 378.996094 L 485.363281 310.632812 C 480.964844 312.898438 476.042969 314.257812 470.734375 314.257812 C 465.425781 314.257812 460.503906 312.832031 456.105469 310.632812 L 445.746094 378.996094 L 438.367188 378.996094 C 434.804688 378.996094 431.890625 381.910156 431.890625 385.46875 C 431.890625 389.03125 434.804688 391.941406 438.367188 391.941406 L 503.101562 391.941406 C 506.664062 391.941406 509.578125 389.03125 509.578125 385.46875 C 509.578125 381.910156 506.664062 378.996094 503.101562 378.996094 Z M 503.101562 378.996094 " fill-opacity="1" fill-rule="nonzero"/></g><path fill="#a6caff" d="M 509.902344 259.164062 C 508.089844 256.058594 504.140625 255.085938 501.03125 256.898438 C 497.925781 258.710938 496.953125 262.660156 498.765625 265.769531 C 501.613281 270.558594 503.101562 276.128906 503.101562 281.890625 C 503.101562 287.652344 501.613281 293.21875 498.765625 298.007812 C 496.953125 301.117188 497.988281 305.066406 501.03125 306.878906 C 502.066406 307.460938 503.167969 307.785156 504.332031 307.785156 C 506.535156 307.785156 508.734375 306.617188 509.902344 304.613281 C 513.914062 297.8125 516.050781 289.980469 516.050781 281.890625 C 516.050781 273.796875 513.914062 265.964844 509.902344 259.164062 Z M 509.902344 259.164062 " fill-opacity="1" fill-rule="nonzero"/><path fill="#a6caff" d="M 527.574219 239.160156 C 525.4375 236.3125 521.359375 235.730469 518.511719 237.933594 C 515.664062 240.066406 515.144531 244.148438 517.28125 246.996094 C 524.984375 257.09375 529.0625 269.199219 529.0625 281.953125 C 529.0625 294.707031 524.984375 306.75 517.28125 316.910156 C 515.144531 319.761719 515.664062 323.839844 518.511719 325.976562 C 519.675781 326.882812 521.035156 327.269531 522.394531 327.269531 C 524.335938 327.269531 526.28125 326.363281 527.574219 324.679688 C 537.027344 312.316406 541.945312 297.492188 541.945312 281.953125 C 541.945312 266.417969 536.960938 251.589844 527.574219 239.226562 Z M 527.574219 239.160156 " fill-opacity="1" fill-rule="nonzero"/><path fill="#6aa6ff" d="M 205.972656 299.066406 C 205.972656 299.488281 205.890625 299.898438 205.730469 300.289062 C 205.566406 300.683594 205.335938 301.03125 205.035156 301.332031 C 204.734375 301.628906 204.386719 301.863281 203.996094 302.023438 C 203.601562 302.1875 203.195312 302.269531 202.769531 302.269531 C 202.34375 302.269531 201.9375 302.1875 201.542969 302.023438 C 201.152344 301.863281 200.804688 301.628906 200.503906 301.332031 C 200.203125 301.03125 199.972656 300.683594 199.808594 300.289062 C 199.648438 299.898438 199.566406 299.488281 199.566406 299.066406 C 199.566406 298.640625 199.648438 298.230469 199.808594 297.839844 C 199.972656 297.445312 200.203125 297.097656 200.503906 296.800781 C 200.804688 296.5 201.152344 296.265625 201.542969 296.105469 C 201.9375 295.941406 202.34375 295.859375 202.769531 295.859375 C 203.195312 295.859375 203.601562 295.941406 203.996094 296.105469 C 204.386719 296.265625 204.734375 296.5 205.035156 296.800781 C 205.335938 297.097656 205.566406 297.445312 205.730469 297.839844 C 205.890625 298.230469 205.972656 298.640625 205.972656 299.066406 Z M 205.972656 299.066406 " fill-opacity="1" fill-rule="nonzero"/><path fill="#6aa6ff" d="M 197.226562 303.335938 C 197.40625 303.335938 197.601562 303.292969 197.769531 303.1875 C 198.285156 302.886719 198.445312 302.238281 198.144531 301.722656 C 197.675781 300.933594 197.429688 300.015625 197.429688 299.066406 C 197.429688 298.113281 197.675781 297.195312 198.144531 296.40625 C 198.445312 295.894531 198.273438 295.242188 197.769531 294.941406 C 197.257812 294.644531 196.605469 294.8125 196.308594 295.316406 C 195.644531 296.4375 195.292969 297.730469 195.292969 299.066406 C 195.292969 300.398438 195.644531 301.691406 196.308594 302.8125 C 196.511719 303.15625 196.863281 303.335938 197.226562 303.335938 Z M 197.226562 303.335938 " fill-opacity="1" fill-rule="nonzero"/><g clip-path="url(#b4237750f7)"><path fill="#6aa6ff" d="M 193.15625 299.066406 C 193.15625 296.960938 193.828125 294.972656 195.101562 293.296875 C 195.453125 292.828125 195.367188 292.15625 194.898438 291.800781 C 194.429688 291.449219 193.753906 291.535156 193.402344 292.003906 C 191.84375 294.042969 191.03125 296.492188 191.03125 299.054688 C 191.03125 301.617188 191.855469 304.0625 193.402344 306.101562 C 193.617188 306.378906 193.9375 306.53125 194.257812 306.53125 C 194.480469 306.53125 194.707031 306.457031 194.898438 306.316406 C 195.367188 305.964844 195.453125 305.292969 195.101562 304.820312 C 193.828125 303.15625 193.15625 301.15625 193.15625 299.054688 Z M 193.15625 299.066406 " fill-opacity="1" fill-rule="nonzero"/></g><g clip-path="url(#e5fca7c92a)"><path fill="#6aa6ff" d="M 208.109375 315.085938 L 206.890625 315.085938 L 205.183594 303.808594 C 204.457031 304.179688 203.644531 304.40625 202.769531 304.40625 C 201.894531 304.40625 201.082031 304.167969 200.355469 303.808594 L 198.648438 315.085938 L 197.429688 315.085938 C 196.839844 315.085938 196.359375 315.566406 196.359375 316.152344 C 196.359375 316.742188 196.839844 317.222656 197.429688 317.222656 L 208.109375 317.222656 C 208.695312 317.222656 209.175781 316.742188 209.175781 316.152344 C 209.175781 315.566406 208.695312 315.085938 208.109375 315.085938 Z M 208.109375 315.085938 " fill-opacity="1" fill-rule="nonzero"/></g><path fill="#6aa6ff" d="M 209.230469 295.316406 C 208.933594 294.804688 208.28125 294.644531 207.769531 294.941406 C 207.253906 295.242188 207.09375 295.894531 207.394531 296.40625 C 207.863281 297.195312 208.109375 298.113281 208.109375 299.066406 C 208.109375 300.015625 207.863281 300.933594 207.394531 301.722656 C 207.09375 302.238281 207.265625 302.886719 207.769531 303.1875 C 207.9375 303.285156 208.121094 303.335938 208.3125 303.335938 C 208.675781 303.335938 209.039062 303.144531 209.230469 302.8125 C 209.894531 301.691406 210.246094 300.398438 210.246094 299.066406 C 210.246094 297.730469 209.894531 296.4375 209.230469 295.316406 Z M 209.230469 295.316406 " fill-opacity="1" fill-rule="nonzero"/><g clip-path="url(#1f585ee97e)"><path fill="#6aa6ff" d="M 212.148438 292.015625 C 211.792969 291.546875 211.121094 291.449219 210.652344 291.8125 C 210.179688 292.164062 210.097656 292.839844 210.449219 293.308594 C 211.71875 294.972656 212.390625 296.972656 212.390625 299.074219 C 212.390625 301.179688 211.71875 303.164062 210.449219 304.84375 C 210.097656 305.3125 210.179688 305.984375 210.652344 306.339844 C 210.84375 306.488281 211.066406 306.550781 211.292969 306.550781 C 211.613281 306.550781 211.933594 306.402344 212.148438 306.125 C 213.707031 304.085938 214.519531 301.636719 214.519531 299.074219 C 214.519531 296.511719 213.695312 294.066406 212.148438 292.027344 Z M 212.148438 292.015625 " fill-opacity="1" fill-rule="nonzero"/></g><path fill="#6aa6ff" d="M 270.882812 178.523438 C 270.882812 178.945312 270.804688 179.355469 270.640625 179.746094 C 270.476562 180.140625 270.246094 180.488281 269.945312 180.789062 C 269.644531 181.089844 269.300781 181.320312 268.90625 181.480469 C 268.515625 181.644531 268.105469 181.726562 267.679688 181.726562 C 267.253906 181.726562 266.847656 181.644531 266.453125 181.480469 C 266.0625 181.320312 265.714844 181.089844 265.414062 180.789062 C 265.113281 180.488281 264.882812 180.140625 264.71875 179.746094 C 264.558594 179.355469 264.476562 178.945312 264.476562 178.523438 C 264.476562 178.097656 264.558594 177.6875 264.71875 177.296875 C 264.882812 176.902344 265.113281 176.554688 265.414062 176.257812 C 265.714844 175.957031 266.0625 175.722656 266.453125 175.5625 C 266.847656 175.398438 267.253906 175.316406 267.679688 175.316406 C 268.105469 175.316406 268.515625 175.398438 268.90625 175.5625 C 269.300781 175.722656 269.644531 175.957031 269.945312 176.257812 C 270.246094 176.554688 270.476562 176.902344 270.640625 177.296875 C 270.804688 177.6875 270.882812 178.097656 270.882812 178.523438 Z M 270.882812 178.523438 " fill-opacity="1" fill-rule="nonzero"/><path fill="#6aa6ff" d="M 262.136719 182.792969 C 262.320312 182.792969 262.511719 182.75 262.683594 182.644531 C 263.195312 182.34375 263.355469 181.695312 263.054688 181.179688 C 262.585938 180.390625 262.339844 179.472656 262.339844 178.523438 C 262.339844 177.570312 262.585938 176.652344 263.054688 175.863281 C 263.355469 175.351562 263.183594 174.699219 262.683594 174.398438 C 262.167969 174.101562 261.519531 174.269531 261.21875 174.773438 C 260.558594 175.894531 260.203125 177.1875 260.203125 178.523438 C 260.203125 179.855469 260.558594 181.148438 261.21875 182.269531 C 261.421875 182.613281 261.773438 182.792969 262.136719 182.792969 Z M 262.136719 182.792969 " fill-opacity="1" fill-rule="nonzero"/><g clip-path="url(#d82cd56464)"><path fill="#6aa6ff" d="M 258.066406 178.523438 C 258.066406 176.417969 258.742188 174.429688 260.011719 172.753906 C 260.363281 172.285156 260.277344 171.613281 259.808594 171.257812 C 259.339844 170.90625 258.667969 170.992188 258.3125 171.460938 C 256.753906 173.503906 255.941406 175.949219 255.941406 178.511719 C 255.941406 181.074219 256.765625 183.519531 258.3125 185.558594 C 258.527344 185.835938 258.847656 185.988281 259.167969 185.988281 C 259.390625 185.988281 259.617188 185.914062 259.808594 185.773438 C 260.277344 185.421875 260.363281 184.75 260.011719 184.277344 C 258.742188 182.613281 258.066406 180.613281 258.066406 178.511719 Z M 258.066406 178.523438 " fill-opacity="1" fill-rule="nonzero"/></g><g clip-path="url(#0795bc4e2f)"><path fill="#6aa6ff" d="M 273.019531 194.542969 L 271.804688 194.542969 L 270.09375 183.265625 C 269.367188 183.636719 268.554688 183.863281 267.679688 183.863281 C 266.804688 183.863281 265.992188 183.628906 265.265625 183.265625 L 263.558594 194.542969 L 262.339844 194.542969 C 261.753906 194.542969 261.273438 195.023438 261.273438 195.609375 C 261.273438 196.199219 261.753906 196.679688 262.339844 196.679688 L 273.019531 196.679688 C 273.609375 196.679688 274.089844 196.199219 274.089844 195.609375 C 274.089844 195.023438 273.609375 194.542969 273.019531 194.542969 Z M 273.019531 194.542969 " fill-opacity="1" fill-rule="nonzero"/></g><path fill="#6aa6ff" d="M 274.140625 174.773438 C 273.84375 174.261719 273.191406 174.101562 272.679688 174.398438 C 272.167969 174.699219 272.007812 175.351562 272.304688 175.863281 C 272.773438 176.652344 273.019531 177.570312 273.019531 178.523438 C 273.019531 179.472656 272.773438 180.390625 272.304688 181.179688 C 272.007812 181.695312 272.175781 182.34375 272.679688 182.644531 C 272.851562 182.742188 273.03125 182.792969 273.222656 182.792969 C 273.585938 182.792969 273.949219 182.601562 274.140625 182.269531 C 274.804688 181.148438 275.15625 179.855469 275.15625 178.523438 C 275.15625 177.1875 274.804688 175.894531 274.140625 174.773438 Z M 274.140625 174.773438 " fill-opacity="1" fill-rule="nonzero"/><g clip-path="url(#f0c1a8023e)"><path fill="#6aa6ff" d="M 277.058594 171.472656 C 276.707031 171.003906 276.03125 170.90625 275.5625 171.269531 C 275.09375 171.621094 275.007812 172.296875 275.359375 172.765625 C 276.628906 174.429688 277.304688 176.429688 277.304688 178.53125 C 277.304688 180.636719 276.628906 182.625 275.359375 184.300781 C 275.007812 184.769531 275.09375 185.441406 275.5625 185.796875 C 275.753906 185.945312 275.980469 186.007812 276.203125 186.007812 C 276.523438 186.007812 276.84375 185.859375 277.058594 185.582031 C 278.617188 183.542969 279.429688 181.097656 279.429688 178.53125 C 279.429688 175.96875 278.605469 173.523438 277.058594 171.484375 Z M 277.058594 171.472656 " fill-opacity="1" fill-rule="nonzero"/></g><path fill="#6aa6ff" d="M 506.210938 136.738281 C 506.210938 137.164062 506.128906 137.574219 505.964844 137.964844 C 505.804688 138.359375 505.570312 138.703125 505.273438 139.003906 C 504.972656 139.304688 504.625 139.535156 504.230469 139.699219 C 503.839844 139.863281 503.429688 139.945312 503.007812 139.945312 C 502.582031 139.945312 502.171875 139.863281 501.78125 139.699219 C 501.386719 139.535156 501.039062 139.304688 500.738281 139.003906 C 500.441406 138.703125 500.207031 138.359375 500.046875 137.964844 C 499.882812 137.574219 499.800781 137.164062 499.800781 136.738281 C 499.800781 136.316406 499.882812 135.90625 500.046875 135.511719 C 500.207031 135.121094 500.441406 134.773438 500.738281 134.472656 C 501.039062 134.171875 501.386719 133.941406 501.78125 133.777344 C 502.171875 133.617188 502.582031 133.535156 503.007812 133.535156 C 503.429688 133.535156 503.839844 133.617188 504.230469 133.777344 C 504.625 133.941406 504.972656 134.171875 505.273438 134.472656 C 505.570312 134.773438 505.804688 135.121094 505.964844 135.511719 C 506.128906 135.90625 506.210938 136.316406 506.210938 136.738281 Z M 506.210938 136.738281 " fill-opacity="1" fill-rule="nonzero"/><path fill="#6aa6ff" d="M 497.460938 141.011719 C 497.644531 141.011719 497.835938 140.96875 498.007812 140.863281 C 498.519531 140.5625 498.679688 139.910156 498.382812 139.398438 C 497.910156 138.609375 497.664062 137.691406 497.664062 136.738281 C 497.664062 135.789062 497.910156 134.871094 498.382812 134.078125 C 498.679688 133.566406 498.507812 132.914062 498.007812 132.617188 C 497.496094 132.316406 496.84375 132.488281 496.542969 132.992188 C 495.882812 134.113281 495.53125 135.40625 495.53125 136.738281 C 495.53125 138.074219 495.882812 139.367188 496.542969 140.488281 C 496.746094 140.828125 497.101562 141.011719 497.460938 141.011719 Z M 497.460938 141.011719 " fill-opacity="1" fill-rule="nonzero"/><g clip-path="url(#5674524a7f)"><path fill="#6aa6ff" d="M 493.394531 136.738281 C 493.394531 134.636719 494.066406 132.648438 495.335938 130.972656 C 495.691406 130.503906 495.605469 129.828125 495.132812 129.476562 C 494.664062 129.125 493.992188 129.210938 493.640625 129.679688 C 492.078125 131.71875 491.269531 134.164062 491.269531 136.730469 C 491.269531 139.292969 492.089844 141.738281 493.640625 143.777344 C 493.851562 144.054688 494.171875 144.203125 494.492188 144.203125 C 494.71875 144.203125 494.941406 144.128906 495.132812 143.992188 C 495.605469 143.640625 495.691406 142.964844 495.335938 142.496094 C 494.066406 140.828125 493.394531 138.832031 493.394531 136.730469 Z M 493.394531 136.738281 " fill-opacity="1" fill-rule="nonzero"/></g><g clip-path="url(#38c1e5b649)"><path fill="#6aa6ff" d="M 508.347656 152.761719 L 507.128906 152.761719 L 505.417969 141.480469 C 504.695312 141.855469 503.882812 142.078125 503.007812 142.078125 C 502.128906 142.078125 501.320312 141.84375 500.59375 141.480469 L 498.882812 152.761719 L 497.664062 152.761719 C 497.078125 152.761719 496.597656 153.242188 496.597656 153.828125 C 496.597656 154.414062 497.078125 154.894531 497.664062 154.894531 L 508.347656 154.894531 C 508.933594 154.894531 509.414062 154.414062 509.414062 153.828125 C 509.414062 153.242188 508.933594 152.761719 508.347656 152.761719 Z M 508.347656 152.761719 " fill-opacity="1" fill-rule="nonzero"/></g><path fill="#6aa6ff" d="M 509.46875 132.992188 C 509.167969 132.476562 508.515625 132.316406 508.003906 132.617188 C 507.492188 132.914062 507.332031 133.566406 507.628906 134.078125 C 508.101562 134.871094 508.347656 135.789062 508.347656 136.738281 C 508.347656 137.691406 508.101562 138.609375 507.628906 139.398438 C 507.332031 139.910156 507.503906 140.5625 508.003906 140.863281 C 508.175781 140.957031 508.355469 141.011719 508.550781 141.011719 C 508.914062 141.011719 509.273438 140.820312 509.46875 140.488281 C 510.128906 139.367188 510.480469 138.074219 510.480469 136.738281 C 510.480469 135.40625 510.128906 134.113281 509.46875 132.992188 Z M 509.46875 132.992188 " fill-opacity="1" fill-rule="nonzero"/><g clip-path="url(#c18cd15ffd)"><path fill="#6aa6ff" d="M 512.382812 129.691406 C 512.03125 129.21875 511.359375 129.125 510.886719 129.488281 C 510.417969 129.839844 510.332031 130.511719 510.683594 130.984375 C 511.957031 132.648438 512.628906 134.644531 512.628906 136.75 C 512.628906 138.855469 511.957031 140.839844 510.683594 142.515625 C 510.332031 142.988281 510.417969 143.660156 510.886719 144.011719 C 511.082031 144.164062 511.304688 144.226562 511.527344 144.226562 C 511.847656 144.226562 512.167969 144.078125 512.382812 143.800781 C 513.941406 141.757812 514.753906 139.3125 514.753906 136.75 C 514.753906 134.1875 513.933594 131.742188 512.382812 129.699219 Z M 512.382812 129.691406 " fill-opacity="1" fill-rule="nonzero"/></g><path fill="#6aa6ff" d="M 645.339844 313.492188 C 645.339844 313.917969 645.257812 314.328125 645.097656 314.71875 C 644.933594 315.113281 644.703125 315.457031 644.402344 315.757812 C 644.101562 316.058594 643.753906 316.292969 643.363281 316.453125 C 642.96875 316.617188 642.5625 316.699219 642.136719 316.699219 C 641.710938 316.699219 641.300781 316.617188 640.910156 316.453125 C 640.515625 316.292969 640.171875 316.058594 639.871094 315.757812 C 639.570312 315.457031 639.339844 315.113281 639.175781 314.71875 C 639.011719 314.328125 638.933594 313.917969 638.933594 313.492188 C 638.933594 313.070312 639.011719 312.660156 639.175781 312.265625 C 639.339844 311.875 639.570312 311.527344 639.871094 311.226562 C 640.171875 310.925781 640.515625 310.695312 640.910156 310.535156 C 641.300781 310.371094 641.710938 310.289062 642.136719 310.289062 C 642.5625 310.289062 642.96875 310.371094 643.363281 310.535156 C 643.753906 310.695312 644.101562 310.925781 644.402344 311.226562 C 644.703125 311.527344 644.933594 311.875 645.097656 312.265625 C 645.257812 312.660156 645.339844 313.070312 645.339844 313.492188 Z M 645.339844 313.492188 " fill-opacity="1" fill-rule="nonzero"/><path fill="#6aa6ff" d="M 636.59375 317.765625 C 636.773438 317.765625 636.964844 317.722656 637.136719 317.617188 C 637.648438 317.316406 637.808594 316.664062 637.511719 316.152344 C 637.042969 315.363281 636.796875 314.445312 636.796875 313.492188 C 636.796875 312.542969 637.042969 311.625 637.511719 310.835938 C 637.808594 310.320312 637.640625 309.667969 637.136719 309.371094 C 636.625 309.070312 635.972656 309.242188 635.675781 309.746094 C 635.011719 310.867188 634.660156 312.160156 634.660156 313.492188 C 634.660156 314.828125 635.011719 316.121094 635.675781 317.242188 C 635.878906 317.585938 636.230469 317.765625 636.59375 317.765625 Z M 636.59375 317.765625 " fill-opacity="1" fill-rule="nonzero"/><g clip-path="url(#b0895868f2)"><path fill="#6aa6ff" d="M 632.523438 313.492188 C 632.523438 311.390625 633.195312 309.402344 634.46875 307.726562 C 634.820312 307.257812 634.734375 306.582031 634.265625 306.230469 C 633.792969 305.878906 633.121094 305.964844 632.769531 306.433594 C 631.210938 308.472656 630.398438 310.917969 630.398438 313.484375 C 630.398438 316.046875 631.222656 318.492188 632.769531 320.53125 C 632.984375 320.808594 633.304688 320.960938 633.625 320.960938 C 633.847656 320.960938 634.074219 320.882812 634.265625 320.746094 C 634.734375 320.394531 634.820312 319.71875 634.46875 319.25 C 633.195312 317.585938 632.523438 315.585938 632.523438 313.484375 Z M 632.523438 313.492188 " fill-opacity="1" fill-rule="nonzero"/></g><g clip-path="url(#f7742e9181)"><path fill="#6aa6ff" d="M 647.476562 329.515625 L 646.257812 329.515625 L 644.550781 318.234375 C 643.824219 318.609375 643.011719 318.832031 642.136719 318.832031 C 641.261719 318.832031 640.449219 318.597656 639.722656 318.234375 L 638.011719 329.515625 L 636.796875 329.515625 C 636.207031 329.515625 635.726562 329.996094 635.726562 330.582031 C 635.726562 331.167969 636.207031 331.648438 636.796875 331.648438 L 647.476562 331.648438 C 648.0625 331.648438 648.542969 331.167969 648.542969 330.582031 C 648.542969 329.996094 648.0625 329.515625 647.476562 329.515625 Z M 647.476562 329.515625 " fill-opacity="1" fill-rule="nonzero"/></g><path fill="#6aa6ff" d="M 648.597656 309.746094 C 648.296875 309.230469 647.648438 309.070312 647.132812 309.371094 C 646.621094 309.667969 646.460938 310.320312 646.761719 310.835938 C 647.230469 311.625 647.476562 312.542969 647.476562 313.492188 C 647.476562 314.445312 647.230469 315.363281 646.761719 316.152344 C 646.460938 316.664062 646.632812 317.316406 647.132812 317.617188 C 647.304688 317.710938 647.488281 317.765625 647.679688 317.765625 C 648.042969 317.765625 648.40625 317.574219 648.597656 317.242188 C 649.261719 316.121094 649.613281 314.828125 649.613281 313.492188 C 649.613281 312.160156 649.261719 310.867188 648.597656 309.746094 Z M 648.597656 309.746094 " fill-opacity="1" fill-rule="nonzero"/><g clip-path="url(#2112ee6bd6)"><path fill="#6aa6ff" d="M 651.511719 306.445312 C 651.160156 305.972656 650.488281 305.878906 650.019531 306.242188 C 649.546875 306.59375 649.460938 307.265625 649.816406 307.738281 C 651.085938 309.402344 651.757812 311.398438 651.757812 313.503906 C 651.757812 315.609375 651.085938 317.59375 649.816406 319.273438 C 649.460938 319.742188 649.546875 320.414062 650.019531 320.765625 C 650.210938 320.917969 650.433594 320.980469 650.660156 320.980469 C 650.980469 320.980469 651.300781 320.832031 651.511719 320.554688 C 653.074219 318.511719 653.882812 316.066406 653.882812 313.503906 C 653.882812 310.941406 653.0625 308.496094 651.511719 306.457031 Z M 651.511719 306.445312 " fill-opacity="1" fill-rule="nonzero"/></g><path fill="#6aa6ff" d="M 651.242188 434.300781 C 651.242188 434.574219 651.214844 434.839844 651.160156 435.109375 C 651.109375 435.375 651.03125 435.632812 650.925781 435.882812 C 650.820312 436.136719 650.695312 436.375 650.542969 436.597656 C 650.394531 436.824219 650.222656 437.035156 650.027344 437.226562 C 649.835938 437.417969 649.628906 437.589844 649.402344 437.738281 C 649.175781 437.890625 648.9375 438.019531 648.6875 438.121094 C 648.4375 438.226562 648.179688 438.304688 647.910156 438.359375 C 647.644531 438.410156 647.375 438.4375 647.105469 438.4375 C 646.832031 438.4375 646.5625 438.410156 646.296875 438.359375 C 646.03125 438.304688 645.773438 438.226562 645.523438 438.121094 C 645.269531 438.019531 645.03125 437.890625 644.804688 437.738281 C 644.582031 437.589844 644.371094 437.417969 644.179688 437.226562 C 643.988281 437.035156 643.816406 436.824219 643.664062 436.597656 C 643.515625 436.375 643.386719 436.136719 643.285156 435.882812 C 643.179688 435.632812 643.101562 435.375 643.046875 435.109375 C 642.996094 434.839844 642.96875 434.574219 642.96875 434.300781 C 642.96875 434.03125 642.996094 433.761719 643.046875 433.496094 C 643.101562 433.226562 643.179688 432.96875 643.285156 432.71875 C 643.386719 432.46875 643.515625 432.230469 643.664062 432.003906 C 643.816406 431.777344 643.988281 431.570312 644.179688 431.375 C 644.371094 431.183594 644.582031 431.011719 644.804688 430.863281 C 645.03125 430.710938 645.269531 430.582031 645.523438 430.480469 C 645.773438 430.375 646.03125 430.296875 646.296875 430.246094 C 646.5625 430.191406 646.832031 430.164062 647.105469 430.164062 C 647.375 430.164062 647.644531 430.191406 647.910156 430.246094 C 648.179688 430.296875 648.4375 430.375 648.6875 430.480469 C 648.9375 430.582031 649.175781 430.710938 649.402344 430.863281 C 649.628906 431.011719 649.835938 431.183594 650.027344 431.375 C 650.222656 431.570312 650.394531 431.777344 650.542969 432.003906 C 650.695312 432.230469 650.820312 432.46875 650.925781 432.71875 C 651.03125 432.96875 651.109375 433.226562 651.160156 433.496094 C 651.214844 433.761719 651.242188 434.03125 651.242188 434.300781 Z M 651.242188 434.300781 " fill-opacity="1" fill-rule="nonzero"/><path fill="#6aa6ff" d="M 639.949219 439.816406 C 640.183594 439.816406 640.429688 439.761719 640.652344 439.621094 C 641.3125 439.238281 641.519531 438.394531 641.132812 437.734375 C 640.527344 436.714844 640.210938 435.527344 640.210938 434.300781 C 640.210938 433.074219 640.527344 431.886719 641.132812 430.867188 C 641.519531 430.207031 641.300781 429.367188 640.652344 428.980469 C 639.992188 428.59375 639.148438 428.8125 638.761719 429.460938 C 637.910156 430.910156 637.453125 432.578125 637.453125 434.300781 C 637.453125 436.023438 637.910156 437.691406 638.761719 439.140625 C 639.023438 439.582031 639.480469 439.816406 639.949219 439.816406 Z M 639.949219 439.816406 " fill-opacity="1" fill-rule="nonzero"/><g clip-path="url(#04b93ed273)"><path fill="#6aa6ff" d="M 634.695312 434.300781 C 634.695312 431.585938 635.566406 429.019531 637.207031 426.855469 C 637.660156 426.25 637.550781 425.382812 636.945312 424.925781 C 636.335938 424.472656 635.46875 424.582031 635.011719 425.1875 C 633 427.820312 631.953125 430.976562 631.953125 434.289062 C 631.953125 437.597656 633.015625 440.753906 635.011719 443.386719 C 635.289062 443.746094 635.703125 443.9375 636.117188 443.9375 C 636.40625 443.9375 636.695312 443.839844 636.945312 443.664062 C 637.550781 443.207031 637.660156 442.339844 637.207031 441.730469 C 635.566406 439.582031 634.695312 437.003906 634.695312 434.289062 Z M 634.695312 434.300781 " fill-opacity="1" fill-rule="nonzero"/></g><g clip-path="url(#e4dfacd5d2)"><path fill="#6aa6ff" d="M 653.996094 454.980469 L 652.425781 454.980469 L 650.21875 440.421875 C 649.28125 440.90625 648.234375 441.195312 647.105469 441.195312 C 645.972656 441.195312 644.925781 440.890625 643.988281 440.421875 L 641.78125 454.980469 L 640.210938 454.980469 C 639.453125 454.980469 638.832031 455.601562 638.832031 456.359375 C 638.832031 457.117188 639.453125 457.738281 640.210938 457.738281 L 653.996094 457.738281 C 654.757812 457.738281 655.375 457.117188 655.375 456.359375 C 655.375 455.601562 654.757812 454.980469 653.996094 454.980469 Z M 653.996094 454.980469 " fill-opacity="1" fill-rule="nonzero"/></g><path fill="#6aa6ff" d="M 655.445312 429.460938 C 655.058594 428.800781 654.21875 428.59375 653.558594 428.980469 C 652.894531 429.367188 652.6875 430.207031 653.074219 430.867188 C 653.679688 431.886719 653.996094 433.074219 653.996094 434.300781 C 653.996094 435.527344 653.679688 436.714844 653.074219 437.734375 C 652.6875 438.394531 652.910156 439.238281 653.558594 439.621094 C 653.777344 439.746094 654.011719 439.816406 654.261719 439.816406 C 654.730469 439.816406 655.199219 439.566406 655.445312 439.140625 C 656.300781 437.691406 656.753906 436.023438 656.753906 434.300781 C 656.753906 432.578125 656.300781 430.910156 655.445312 429.460938 Z M 655.445312 429.460938 " fill-opacity="1" fill-rule="nonzero"/><g clip-path="url(#37a99bf5ee)"><path fill="#6aa6ff" d="M 659.210938 425.203125 C 658.753906 424.59375 657.886719 424.472656 657.277344 424.941406 C 656.671875 425.394531 656.5625 426.261719 657.015625 426.871094 C 658.65625 429.019531 659.527344 431.597656 659.527344 434.316406 C 659.527344 437.03125 658.65625 439.59375 657.015625 441.761719 C 656.5625 442.367188 656.671875 443.234375 657.277344 443.691406 C 657.527344 443.882812 657.816406 443.964844 658.105469 443.964844 C 658.519531 443.964844 658.933594 443.773438 659.210938 443.414062 C 661.222656 440.78125 662.269531 437.625 662.269531 434.316406 C 662.269531 431.007812 661.207031 427.847656 659.210938 425.214844 Z M 659.210938 425.203125 " fill-opacity="1" fill-rule="nonzero"/></g></svg>